<svg id="visual" viewBox="0 0 900 300" width="900" height="300" xmlns="http://www.w3.org/2000/svg" xmlns:xlink="http://www.w3.org/1999/xlink" version="1.1"><rect x="0" y="0" width="900" height="300" fill="#001220"></rect><path d="M0 44L18.8 45C37.7 46 75.3 48 112.8 46.7C150.3 45.3 187.7 40.7 225.2 39.5C262.7 38.3 300.3 40.7 337.8 40.8C375.3 41 412.7 39 450.2 38.7C487.7 38.3 525.3 39.7 562.8 39.8C600.3 40 637.7 39 675.2 39C712.7 39 750.3 40 787.8 40.8C825.3 41.7 862.7 42.3 881.3 42.7L900 43L900 0L881.3 0C862.7 0 825.3 0 787.8 0C750.3 0 712.7 0 675.2 0C637.7 0 600.3 0 562.8 0C525.3 0 487.7 0 450.2 0C412.7 0 375.3 0 337.8 0C300.3 0 262.7 0 225.2 0C187.7 0 150.3 0 112.8 0C75.3 0 37.7 0 18.8 0L0 0Z" fill="#001220"></path><path d="M0 37L18.8 35.5C37.7 34 75.3 31 112.8 31C150.3 31 187.7 34 225.2 34.5C262.7 35 300.3 33 337.8 32.7C375.3 32.3 412.7 33.7 450.2 33.2C487.7 32.7 525.3 30.3 562.8 30.2C600.3 30 637.7 32 675.2 32.5C712.7 33 750.3 32 787.8 32.3C825.3 32.7 862.7 34.3 881.3 35.2L900 36L900 0L881.3 0C862.7 0 825.3 0 787.8 0C750.3 0 712.7 0 675.2 0C637.7 0 600.3 0 562.8 0C525.3 0 487.7 0 450.2 0C412.7 0 375.3 0 337.8 0C300.3 0 262.7 0 225.2 0C187.7 0 150.3 0 112.8 0C75.3 0 37.7 0 18.8 0L0 0Z" fill="#172447"></path><path d="M0 21L18.8 22.5C37.7 24 75.3 27 112.8 27C150.3 27 187.7 24 225.2 23.3C262.7 22.7 300.3 24.3 337.8 26.2C375.3 28 412.7 30 450.2 29.8C487.7 29.7 525.3 27.3 562.8 26.5C600.3 25.7 637.7 26.3 675.2 27.3C712.7 28.3 750.3 29.7 787.8 29.5C825.3 29.3 862.7 27.7 881.3 26.8L900 26L900 0L881.3 0C862.7 0 825.3 0 787.8 0C750.3 0 712.7 0 675.2 0C637.7 0 600.3 0 562.8 0C525.3 0 487.7 0 450.2 0C412.7 0 375.3 0 337.8 0C300.3 0 262.7 0 225.2 0C187.7 0 150.3 0 112.8 0C75.3 0 37.7 0 18.8 0L0 0Z" fill="#4b2d66"></path><path d="M0 21L18.8 21.3C37.7 21.7 75.3 22.3 112.8 21.3C150.3 20.3 187.7 17.7 225.2 16.7C262.7 15.7 300.3 16.3 337.8 16.5C375.3 16.7 412.7 16.3 450.2 15.8C487.7 15.3 525.3 14.7 562.8 15.2C600.3 15.7 637.7 17.3 675.2 17.7C712.7 18 750.3 17 787.8 16.2C825.3 15.3 862.7 14.7 881.3 14.3L900 14L900 0L881.3 0C862.7 0 825.3 0 787.8 0C750.3 0 712.7 0 675.2 0C637.7 0 600.3 0 562.8 0C525.3 0 487.7 0 450.2 0C412.7 0 375.3 0 337.8 0C300.3 0 262.7 0 225.2 0C187.7 0 150.3 0 112.8 0C75.3 0 37.7 0 18.8 0L0 0Z" fill="#8a2b72"></path><path d="M0 9L18.8 9.7C37.7 10.3 75.3 11.7 112.8 11.5C150.3 11.3 187.7 9.7 225.2 9C262.7 8.3 300.3 8.7 337.8 8.3C375.3 8 412.7 7 450.2 7.3C487.7 7.7 525.3 9.3 562.8 10C600.3 10.7 637.7 10.3 675.2 10.8C712.7 11.3 750.3 12.7 787.8 12.2C825.3 11.7 862.7 9.3 881.3 8.2L900 7L900 0L881.3 0C862.7 0 825.3 0 787.8 0C750.3 0 712.7 0 675.2 0C637.7 0 600.3 0 562.8 0C525.3 0 487.7 0 450.2 0C412.7 0 375.3 0 337.8 0C300.3 0 262.7 0 225.2 0C187.7 0 150.3 0 112.8 0C75.3 0 37.7 0 18.8 0L0 0Z" fill="#c62368"></path></svg>