<svg id="visual" viewBox="0 0 675 900" width="675" height="900" xmlns="http://www.w3.org/2000/svg" xmlns:xlink="http://www.w3.org/1999/xlink" version="1.1"><rect x="0" y="0" width="675" height="900" fill="#002233"></rect><path d="M0 345L16 352C32 359 64 373 96.2 402.5C128.3 432 160.7 477 192.8 471.7C225 466.3 257 410.7 289.2 401.8C321.3 393 353.7 431 385.8 456.2C418 481.3 450 493.7 482.2 482.7C514.3 471.7 546.7 437.3 578.8 437.5C611 437.7 643 472.3 659 489.7L675 507L675 0L659 0C643 0 611 0 578.8 0C546.7 0 514.3 0 482.2 0C450 0 418 0 385.8 0C353.7 0 321.3 0 289.2 0C257 0 225 0 192.8 0C160.7 0 128.3 0 96.2 0C64 0 32 0 16 0L0 0Z" fill="#6200f4" stroke-linecap="round" stroke-linejoin="miter"></path></svg>