<svg id="visual" viewBox="0 0 900 700" width="900" height="700" xmlns="http://www.w3.org/2000/svg" xmlns:xlink="http://www.w3.org/1999/xlink" version="1.1"><rect x="0" y="0" width="900" height="700" fill="#002233"></rect><path d="M0 402L21.5 401.3C43 400.7 86 399.3 128.8 377.2C171.7 355 214.3 312 257.2 291.3C300 270.7 343 272.3 385.8 277.3C428.7 282.3 471.3 290.7 514.2 302.2C557 313.7 600 328.3 642.8 339.5C685.7 350.7 728.3 358.3 771.2 357.5C814 356.7 857 347.3 878.5 342.7L900 338L900 0L878.5 0C857 0 814 0 771.2 0C728.3 0 685.7 0 642.8 0C600 0 557 0 514.2 0C471.3 0 428.7 0 385.8 0C343 0 300 0 257.2 0C214.3 0 171.7 0 128.8 0C86 0 43 0 21.5 0L0 0Z" fill="#6200f4" stroke-linecap="round" stroke-linejoin="miter"></path></svg>