<svg id="visual" viewBox="0 0 900 300" width="900" height="300" xmlns="http://www.w3.org/2000/svg" xmlns:xlink="http://www.w3.org/1999/xlink" version="1.1"><path d="M0 73L30 74.5C60 76 120 79 180 83.5C240 88 300 94 360 91.5C420 89 480 78 540 76.5C600 75 660 83 720 84C780 85 840 79 870 76L900 73L900 0L870 0C840 0 780 0 720 0C660 0 600 0 540 0C480 0 420 0 360 0C300 0 240 0 180 0C120 0 60 0 30 0L0 0Z" fill="#001220"></path><path d="M0 103L30 105C60 107 120 111 180 119C240 127 300 139 360 140.5C420 142 480 133 540 130C600 127 660 130 720 128.5C780 127 840 121 870 118L900 115L900 71L870 74C840 77 780 83 720 82C660 81 600 73 540 74.5C480 76 420 87 360 89.5C300 92 240 86 180 81.5C120 77 60 74 30 72.5L0 71Z" fill="#0f213f"></path><path d="M0 214L30 212.5C60 211 120 208 180 208C240 208 300 211 360 212C420 213 480 212 540 211.5C600 211 660 211 720 209.5C780 208 840 205 870 203.5L900 202L900 113L870 116C840 119 780 125 720 126.5C660 128 600 125 540 128C480 131 420 140 360 138.5C300 137 240 125 180 117C120 109 60 105 30 103L0 101Z" fill="#342a5b"></path><path d="M0 250L30 250C60 250 120 250 180 249C240 248 300 246 360 244.5C420 243 480 242 540 241.5C600 241 660 241 720 240.5C780 240 840 239 870 238.5L900 238L900 200L870 201.5C840 203 780 206 720 207.5C660 209 600 209 540 209.5C480 210 420 211 360 210C300 209 240 206 180 206C120 206 60 209 30 210.5L0 212Z" fill="#642e6e"></path><path d="M0 277L30 276C60 275 120 273 180 274C240 275 300 279 360 280C420 281 480 279 540 278C600 277 660 277 720 275C780 273 840 269 870 267L900 265L900 236L870 236.5C840 237 780 238 720 238.5C660 239 600 239 540 239.5C480 240 420 241 360 242.5C300 244 240 246 180 247C120 248 60 248 30 248L0 248Z" fill="#962972"></path><path d="M0 301L30 301C60 301 120 301 180 301C240 301 300 301 360 301C420 301 480 301 540 301C600 301 660 301 720 301C780 301 840 301 870 301L900 301L900 263L870 265C840 267 780 271 720 273C660 275 600 275 540 276C480 277 420 279 360 278C300 277 240 273 180 272C120 271 60 273 30 274L0 275Z" fill="#c62368"></path></svg>