<svg id="visual" viewBox="0 0 900 600" width="900" height="600" xmlns="http://www.w3.org/2000/svg" xmlns:xlink="http://www.w3.org/1999/xlink" version="1.1"><rect x="0" y="0" width="900" height="600" fill="#1d0a23"></rect><defs><linearGradient id="grad1_0" x1="33.3%" y1="0%" x2="100%" y2="100%"><stop offset="20%" stop-color="#2e0245" stop-opacity="1"></stop><stop offset="80%" stop-color="#2e0245" stop-opacity="1"></stop></linearGradient></defs><defs><linearGradient id="grad1_1" x1="33.3%" y1="0%" x2="100%" y2="100%"><stop offset="20%" stop-color="#2e0245" stop-opacity="1"></stop><stop offset="80%" stop-color="#2b053e" stop-opacity="1"></stop></linearGradient></defs><defs><linearGradient id="grad1_2" x1="33.3%" y1="0%" x2="100%" y2="100%"><stop offset="20%" stop-color="#270737" stop-opacity="1"></stop><stop offset="80%" stop-color="#2b053e" stop-opacity="1"></stop></linearGradient></defs><defs><linearGradient id="grad1_3" x1="33.3%" y1="0%" x2="100%" y2="100%"><stop offset="20%" stop-color="#270737" stop-opacity="1"></stop><stop offset="80%" stop-color="#240930" stop-opacity="1"></stop></linearGradient></defs><defs><linearGradient id="grad1_4" x1="33.3%" y1="0%" x2="100%" y2="100%"><stop offset="20%" stop-color="#200a29" stop-opacity="1"></stop><stop offset="80%" stop-color="#240930" stop-opacity="1"></stop></linearGradient></defs><defs><linearGradient id="grad1_5" x1="33.3%" y1="0%" x2="100%" y2="100%"><stop offset="20%" stop-color="#200a29" stop-opacity="1"></stop><stop offset="80%" stop-color="#1d0a23" stop-opacity="1"></stop></linearGradient></defs><defs><linearGradient id="grad2_0" x1="0%" y1="0%" x2="66.7%" y2="100%"><stop offset="20%" stop-color="#2e0245" stop-opacity="1"></stop><stop offset="80%" stop-color="#2e0245" stop-opacity="1"></stop></linearGradient></defs><defs><linearGradient id="grad2_1" x1="0%" y1="0%" x2="66.7%" y2="100%"><stop offset="20%" stop-color="#2b053e" stop-opacity="1"></stop><stop offset="80%" stop-color="#2e0245" stop-opacity="1"></stop></linearGradient></defs><defs><linearGradient id="grad2_2" x1="0%" y1="0%" x2="66.7%" y2="100%"><stop offset="20%" stop-color="#2b053e" stop-opacity="1"></stop><stop offset="80%" stop-color="#270737" stop-opacity="1"></stop></linearGradient></defs><defs><linearGradient id="grad2_3" x1="0%" y1="0%" x2="66.7%" y2="100%"><stop offset="20%" stop-color="#240930" stop-opacity="1"></stop><stop offset="80%" stop-color="#270737" stop-opacity="1"></stop></linearGradient></defs><defs><linearGradient id="grad2_4" x1="0%" y1="0%" x2="66.7%" y2="100%"><stop offset="20%" stop-color="#240930" stop-opacity="1"></stop><stop offset="80%" stop-color="#200a29" stop-opacity="1"></stop></linearGradient></defs><defs><linearGradient id="grad2_5" x1="0%" y1="0%" x2="66.7%" y2="100%"><stop offset="20%" stop-color="#1d0a23" stop-opacity="1"></stop><stop offset="80%" stop-color="#200a29" stop-opacity="1"></stop></linearGradient></defs><g transform="translate(900, 0)"><path d="M0 506C-18.6 449.5 -37.3 393.1 -70.5 399.8C-103.7 406.6 -151.6 476.6 -170.3 468C-189 459.3 -178.6 371.9 -204 353.3C-229.4 334.8 -290.7 384.9 -320.8 382.3C-350.8 379.6 -349.6 324 -325.6 273.2C-301.6 222.4 -254.8 176.4 -288.4 166.5C-322 156.6 -436 183 -477.4 173.7C-518.8 164.5 -487.6 119.8 -481.6 84.9C-475.5 50 -494.7 25 -513.8 0L0 0Z" fill="#1f0a26"></path><path d="M0 421.7C-15.5 374.6 -31 327.5 -58.8 333.2C-86.5 338.8 -126.3 397.2 -141.9 390C-157.5 382.7 -148.8 309.9 -170 294.4C-191.2 279 -242.3 320.8 -267.3 318.5C-292.3 316.3 -291.3 270 -271.3 227.7C-251.3 185.3 -212.3 147 -240.3 138.8C-268.3 130.5 -363.3 152.5 -397.8 144.8C-432.3 137.1 -406.3 99.8 -401.3 70.8C-396.3 41.7 -412.2 20.8 -428.2 0L0 0Z" fill="#22092d"></path><path d="M0 337.3C-12.4 299.7 -24.8 262 -47 266.6C-69.2 271.1 -101.1 317.8 -113.6 312C-126 306.2 -119.1 248 -136 235.6C-152.9 223.2 -193.8 256.6 -213.8 254.8C-233.9 253 -233 216 -217 182.1C-201 148.3 -169.9 117.6 -192.3 111C-214.7 104.4 -290.6 122 -318.2 115.8C-345.8 109.7 -325.1 79.9 -321 56.6C-317 33.4 -329.8 16.7 -342.5 0L0 0Z" fill="#260833"></path><path d="M0 253C-9.3 224.8 -18.6 196.5 -35.3 199.9C-51.9 203.3 -75.8 238.3 -85.2 234C-94.5 229.6 -89.3 186 -102 176.7C-114.7 167.4 -145.4 192.5 -160.4 191.1C-175.4 189.8 -174.8 162 -162.8 136.6C-150.8 111.2 -127.4 88.2 -144.2 83.3C-161 78.3 -218 91.5 -238.7 86.9C-259.4 82.3 -243.8 59.9 -240.8 42.5C-237.8 25 -247.3 12.5 -256.9 0L0 0Z" fill="#29063a"></path><path d="M0 168.7C-6.2 149.8 -12.4 131 -23.5 133.3C-34.6 135.5 -50.5 158.9 -56.8 156C-63 153.1 -59.5 124 -68 117.8C-76.5 111.6 -96.9 128.3 -106.9 127.4C-116.9 126.5 -116.5 108 -108.5 91.1C-100.5 74.1 -84.9 58.8 -96.1 55.5C-107.3 52.2 -145.3 61 -159.1 57.9C-172.9 54.8 -162.5 39.9 -160.5 28.3C-158.5 16.7 -164.9 8.3 -171.3 0L0 0Z" fill="#2c0341"></path><path d="M0 84.3C-3.1 74.9 -6.2 65.5 -11.8 66.6C-17.3 67.8 -25.3 79.4 -28.4 78C-31.5 76.5 -29.8 62 -34 58.9C-38.2 55.8 -48.5 64.2 -53.5 63.7C-58.5 63.3 -58.3 54 -54.3 45.5C-50.3 37.1 -42.5 29.4 -48.1 27.8C-53.7 26.1 -72.7 30.5 -79.6 29C-86.5 27.4 -81.3 20 -80.3 14.2C-79.3 8.3 -82.4 4.2 -85.6 0L0 0Z" fill="#2e0245"></path></g><g transform="translate(0, 600)"><path d="M0 -475C28.1 -485.7 56.1 -496.4 88.4 -501.3C120.6 -506.2 157.1 -505.3 171.4 -470.8C185.6 -436.3 177.7 -368.2 207.5 -359.4C237.3 -350.6 304.8 -401.1 330.3 -393.6C355.7 -386.1 339 -320.5 327.9 -275.1C316.7 -229.7 311.1 -204.4 322.2 -186C333.2 -167.6 361 -156.3 378.7 -137.8C396.4 -119.4 403.9 -94 395.9 -69.8C387.9 -45.7 364.5 -22.8 341 0L0 0Z" fill="#1f0a26"></path><path d="M0 -395.8C23.4 -404.7 46.8 -413.6 73.7 -417.7C100.5 -421.8 130.9 -421.1 142.8 -392.3C154.7 -363.6 148.1 -306.8 172.9 -299.5C197.8 -292.2 254 -334.3 275.2 -328C296.4 -321.7 282.5 -267.1 273.2 -229.3C263.9 -191.4 259.2 -170.3 268.5 -155C277.7 -139.7 300.9 -130.2 315.6 -114.9C330.3 -99.5 336.6 -78.3 329.9 -58.2C323.3 -38.1 303.7 -19 284.2 0L0 0Z" fill="#22092d"></path><path d="M0 -316.7C18.7 -323.8 37.4 -330.9 58.9 -334.2C80.4 -337.4 104.7 -336.9 114.2 -313.9C123.7 -290.9 118.5 -245.5 138.3 -239.6C158.2 -233.7 203.2 -267.4 220.2 -262.4C237.1 -257.4 226 -213.7 218.6 -183.4C211.1 -153.1 207.4 -136.2 214.8 -124C222.2 -111.8 240.7 -104.2 252.5 -91.9C264.2 -79.6 269.2 -62.6 263.9 -46.5C258.6 -30.4 243 -15.2 227.3 0L0 0Z" fill="#260833"></path><path d="M0 -237.5C14 -242.8 28.1 -248.2 44.2 -250.6C60.3 -253.1 78.5 -252.6 85.7 -235.4C92.8 -218.1 88.8 -184.1 103.7 -179.7C118.7 -175.3 152.4 -200.6 165.1 -196.8C177.8 -193 169.5 -160.3 163.9 -137.6C158.4 -114.8 155.5 -102.2 161.1 -93C166.6 -83.8 180.5 -78.1 189.3 -68.9C198.2 -59.7 201.9 -47 197.9 -34.9C194 -22.8 182.2 -11.4 170.5 0L0 0Z" fill="#29063a"></path><path d="M0 -158.3C9.4 -161.9 18.7 -165.5 29.5 -167.1C40.2 -168.7 52.4 -168.4 57.1 -156.9C61.9 -145.4 59.2 -122.7 69.2 -119.8C79.1 -116.9 101.6 -133.7 110.1 -131.2C118.6 -128.7 113 -106.8 109.3 -91.7C105.6 -76.6 103.7 -68.1 107.4 -62C111.1 -55.9 120.3 -52.1 126.2 -45.9C132.1 -39.8 134.6 -31.3 132 -23.3C129.3 -15.2 121.5 -7.6 113.7 0L0 0Z" fill="#2c0341"></path><path d="M0 -79.2C4.7 -80.9 9.4 -82.7 14.7 -83.5C20.1 -84.4 26.2 -84.2 28.6 -78.5C30.9 -72.7 29.6 -61.4 34.6 -59.9C39.6 -58.4 50.8 -66.9 55 -65.6C59.3 -64.3 56.5 -53.4 54.6 -45.9C52.8 -38.3 51.8 -34.1 53.7 -31C55.5 -27.9 60.2 -26 63.1 -23C66.1 -19.9 67.3 -15.7 66 -11.6C64.7 -7.6 60.7 -3.8 56.8 0L0 0Z" fill="#2e0245"></path></g></svg>