<svg id="visual" viewBox="0 0 900 600" width="900" height="600" xmlns="http://www.w3.org/2000/svg" xmlns:xlink="http://www.w3.org/1999/xlink" version="1.1"><g stroke-width="1" stroke-linejoin="bevel"><path d="M433.3 301.1L485.7 293.9L432.3 264.9Z" fill="#22092c" stroke="#22092c"></path><path d="M485.7 293.9L448.7 246.8L432.3 264.9Z" fill="#2d0341" stroke="#2d0341"></path><path d="M515.1 330.1L507.7 294.1L485.7 293.9Z" fill="#29063a" stroke="#29063a"></path><path d="M485.7 293.9L526.1 268.9L448.7 246.8Z" fill="#260833" stroke="#260833"></path><path d="M433.3 301.1L464.3 341.2L485.7 293.9Z" fill="#2e0245" stroke="#2e0245"></path><path d="M507.7 294.1L526.1 268.9L485.7 293.9Z" fill="#2b053e" stroke="#2b053e"></path><path d="M464.3 341.2L515.1 330.1L485.7 293.9Z" fill="#22092c" stroke="#22092c"></path><path d="M507.7 294.1L565.4 285.1L526.1 268.9Z" fill="#29063a" stroke="#29063a"></path><path d="M404.3 215.8L382.9 249.9L432.3 264.9Z" fill="#2e0245" stroke="#2e0245"></path><path d="M432.3 264.9L382.9 249.9L433.3 301.1Z" fill="#2d0341" stroke="#2d0341"></path><path d="M433.3 301.1L383.9 399.2L464.3 341.2Z" fill="#29063a" stroke="#29063a"></path><path d="M417.9 200.8L404.3 215.8L448.7 246.8Z" fill="#280736" stroke="#280736"></path><path d="M448.7 246.8L404.3 215.8L432.3 264.9Z" fill="#280736" stroke="#280736"></path><path d="M464.3 171.6L417.9 200.8L448.7 246.8Z" fill="#2b053e" stroke="#2b053e"></path><path d="M382.9 249.9L366.9 307.1L433.3 301.1Z" fill="#2e0245" stroke="#2e0245"></path><path d="M472.7 434.4L504.7 366.2L464.3 341.2Z" fill="#210a29" stroke="#210a29"></path><path d="M464.3 341.2L504.7 366.2L515.1 330.1Z" fill="#29063a" stroke="#29063a"></path><path d="M504.7 366.2L530.4 348.2L515.1 330.1Z" fill="#2e0245" stroke="#2e0245"></path><path d="M515.1 330.1L565.4 285.1L507.7 294.1Z" fill="#29063a" stroke="#29063a"></path><path d="M565.4 285.1L551.1 251.8L526.1 268.9Z" fill="#210a29" stroke="#210a29"></path><path d="M526.1 268.9L505.7 163.6L448.7 246.8Z" fill="#260833" stroke="#260833"></path><path d="M551.1 251.8L549.4 243.9L526.1 268.9Z" fill="#1f0a26" stroke="#1f0a26"></path><path d="M546.1 344.2L565.4 285.1L515.1 330.1Z" fill="#1d0a23" stroke="#1d0a23"></path><path d="M551.1 251.8L601.4 215.8L549.4 243.9Z" fill="#2e0245" stroke="#2e0245"></path><path d="M534.4 403.4L546.1 344.2L530.4 348.2Z" fill="#1d0a23" stroke="#1d0a23"></path><path d="M530.4 348.2L546.1 344.2L515.1 330.1Z" fill="#2b053e" stroke="#2b053e"></path><path d="M505.7 163.6L464.3 171.6L448.7 246.8Z" fill="#29063a" stroke="#29063a"></path><path d="M464.3 171.6L435.3 163.5L417.9 200.8Z" fill="#1d0a23" stroke="#1d0a23"></path><path d="M417.9 200.8L384.9 169.5L404.3 215.8Z" fill="#260833" stroke="#260833"></path><path d="M322.6 264.8L366.9 307.1L382.9 249.9Z" fill="#280736" stroke="#280736"></path><path d="M322.6 264.8L336.6 311.9L366.9 307.1Z" fill="#260833" stroke="#260833"></path><path d="M366.9 307.1L352.6 365.2L433.3 301.1Z" fill="#2b053e" stroke="#2b053e"></path><path d="M360.9 163.6L382.9 249.9L404.3 215.8Z" fill="#260833" stroke="#260833"></path><path d="M546.1 344.2L581.8 290.9L565.4 285.1Z" fill="#2d0341" stroke="#2d0341"></path><path d="M565.4 285.1L581.8 290.9L551.1 251.8Z" fill="#210a29" stroke="#210a29"></path><path d="M534.4 175.6L505.7 163.6L549.4 243.9Z" fill="#2e0245" stroke="#2e0245"></path><path d="M549.4 243.9L505.7 163.6L526.1 268.9Z" fill="#2b053e" stroke="#2b053e"></path><path d="M464.3 171.6L463.7 130.5L435.3 163.5Z" fill="#1d0a23" stroke="#1d0a23"></path><path d="M543.1 160.5L534.4 175.6L559.1 168.6Z" fill="#2b053e" stroke="#2b053e"></path><path d="M336.6 311.9L352.6 365.2L366.9 307.1Z" fill="#2b053e" stroke="#2b053e"></path><path d="M435.3 163.5L384.9 169.5L417.9 200.8Z" fill="#2e0245" stroke="#2e0245"></path><path d="M294.6 191.6L322.6 264.8L382.9 249.9Z" fill="#240930" stroke="#240930"></path><path d="M352.6 365.2L383.9 399.2L433.3 301.1Z" fill="#240930" stroke="#240930"></path><path d="M472.7 434.4L534.4 403.4L504.7 366.2Z" fill="#29063a" stroke="#29063a"></path><path d="M504.7 366.2L534.4 403.4L530.4 348.2Z" fill="#2b053e" stroke="#2b053e"></path><path d="M546.1 344.2L622.8 335.2L581.8 290.9Z" fill="#1f0a26" stroke="#1f0a26"></path><path d="M559.1 168.6L534.4 175.6L549.4 243.9Z" fill="#2b053e" stroke="#2b053e"></path><path d="M534.4 175.6L543.1 160.5L505.7 163.6Z" fill="#260833" stroke="#260833"></path><path d="M505.7 163.6L463.7 130.5L464.3 171.6Z" fill="#2b053e" stroke="#2b053e"></path><path d="M534.4 103.3L463.7 130.5L505.7 163.6Z" fill="#1d0a23" stroke="#1d0a23"></path><path d="M435.3 163.5L433.7 100.3L384.9 169.5Z" fill="#260833" stroke="#260833"></path><path d="M601.4 215.8L559.1 168.6L549.4 243.9Z" fill="#2e0245" stroke="#2e0245"></path><path d="M383.9 399.2L472.7 434.4L464.3 341.2Z" fill="#2b053e" stroke="#2b053e"></path><path d="M358.9 79.3L360.9 163.6L384.9 169.5Z" fill="#2b053e" stroke="#2b053e"></path><path d="M384.9 169.5L360.9 163.6L404.3 215.8Z" fill="#210a29" stroke="#210a29"></path><path d="M472.7 434.4L544.1 414.4L534.4 403.4Z" fill="#1f0a26" stroke="#1f0a26"></path><path d="M534.4 403.4L579.8 423.5L546.1 344.2Z" fill="#29063a" stroke="#29063a"></path><path d="M581.8 290.9L601.4 215.8L551.1 251.8Z" fill="#1d0a23" stroke="#1d0a23"></path><path d="M322.6 264.8L302.6 318.1L336.6 311.9Z" fill="#240930" stroke="#240930"></path><path d="M336.6 311.9L302.6 318.1L352.6 365.2Z" fill="#2d0341" stroke="#2d0341"></path><path d="M352.6 365.2L362.9 412.4L383.9 399.2Z" fill="#210a29" stroke="#210a29"></path><path d="M292.2 405.2L362.9 412.4L352.6 365.2Z" fill="#2b053e" stroke="#2b053e"></path><path d="M383.9 399.2L392.3 429.4L472.7 434.4Z" fill="#29063a" stroke="#29063a"></path><path d="M362.9 412.4L392.3 429.4L383.9 399.2Z" fill="#280736" stroke="#280736"></path><path d="M392.3 429.4L455.3 454.5L472.7 434.4Z" fill="#280736" stroke="#280736"></path><path d="M472.7 434.4L548.1 453.5L544.1 414.4Z" fill="#280736" stroke="#280736"></path><path d="M624.8 339.1L622.8 335.2L546.1 344.2Z" fill="#2e0245" stroke="#2e0245"></path><path d="M661.2 268.9L647.8 213.8L601.4 215.8Z" fill="#2e0245" stroke="#2e0245"></path><path d="M610.8 403.4L624.8 339.1L546.1 344.2Z" fill="#29063a" stroke="#29063a"></path><path d="M622.8 335.2L643.2 322.1L581.8 290.9Z" fill="#260833" stroke="#260833"></path><path d="M256.8 211.6L275.2 280.9L322.6 264.8Z" fill="#240930" stroke="#240930"></path><path d="M322.6 264.8L275.2 280.9L302.6 318.1Z" fill="#2b053e" stroke="#2b053e"></path><path d="M292.2 405.2L360.6 438.4L362.9 412.4Z" fill="#2e0245" stroke="#2e0245"></path><path d="M491.1 72.3L433.7 100.3L463.7 130.5Z" fill="#1f0a26" stroke="#1f0a26"></path><path d="M463.7 130.5L433.7 100.3L435.3 163.5Z" fill="#240930" stroke="#240930"></path><path d="M534.4 103.3L505.7 163.6L543.1 160.5Z" fill="#210a29" stroke="#210a29"></path><path d="M362.9 412.4L360.6 438.4L392.3 429.4Z" fill="#260833" stroke="#260833"></path><path d="M392.3 429.4L412.9 467.5L455.3 454.5Z" fill="#2d0341" stroke="#2d0341"></path><path d="M360.6 444.5L360.6 438.4L298.6 468.7Z" fill="#22092c" stroke="#22092c"></path><path d="M304.6 118.5L294.6 191.6L360.9 163.6Z" fill="#280736" stroke="#280736"></path><path d="M360.9 163.6L294.6 191.6L382.9 249.9Z" fill="#2b053e" stroke="#2b053e"></path><path d="M548.1 453.5L579.8 423.5L544.1 414.4Z" fill="#260833" stroke="#260833"></path><path d="M544.1 414.4L579.8 423.5L534.4 403.4Z" fill="#2b053e" stroke="#2b053e"></path><path d="M268.2 358.1L352.6 365.2L302.6 318.1Z" fill="#260833" stroke="#260833"></path><path d="M360.6 438.4L360.6 444.5L392.3 429.4Z" fill="#1f0a26" stroke="#1f0a26"></path><path d="M661.2 373.2L643.2 322.1L624.8 339.1Z" fill="#240930" stroke="#240930"></path><path d="M624.8 339.1L643.2 322.1L622.8 335.2Z" fill="#2b053e" stroke="#2b053e"></path><path d="M360.6 444.5L412.9 467.5L392.3 429.4Z" fill="#240930" stroke="#240930"></path><path d="M502.7 497.5L548.1 453.5L472.7 434.4Z" fill="#2e0245" stroke="#2e0245"></path><path d="M601.4 215.8L604.8 159.5L559.1 168.6Z" fill="#1d0a23" stroke="#1d0a23"></path><path d="M573.4 125.5L534.4 103.3L543.1 160.5Z" fill="#2e0245" stroke="#2e0245"></path><path d="M647.8 194.6L604.8 159.5L601.4 215.8Z" fill="#2b053e" stroke="#2b053e"></path><path d="M557.4 465.5L548.1 453.5L502.7 497.5Z" fill="#2e0245" stroke="#2e0245"></path><path d="M573.4 125.5L543.1 160.5L559.1 168.6Z" fill="#240930" stroke="#240930"></path><path d="M604.8 159.5L573.4 125.5L559.1 168.6Z" fill="#29063a" stroke="#29063a"></path><path d="M632.2 449.4L610.8 403.4L579.8 423.5Z" fill="#22092c" stroke="#22092c"></path><path d="M579.8 423.5L610.8 403.4L546.1 344.2Z" fill="#2e0245" stroke="#2e0245"></path><path d="M661.2 268.9L601.4 215.8L581.8 290.9Z" fill="#280736" stroke="#280736"></path><path d="M249.8 315.9L268.2 358.1L302.6 318.1Z" fill="#280736" stroke="#280736"></path><path d="M643.2 322.1L661.2 268.9L581.8 290.9Z" fill="#1f0a26" stroke="#1f0a26"></path><path d="M268.2 358.1L292.2 405.2L352.6 365.2Z" fill="#1d0a23" stroke="#1d0a23"></path><path d="M502.7 497.5L472.7 434.4L455.3 454.5Z" fill="#1d0a23" stroke="#1d0a23"></path><path d="M548.1 453.5L557.4 465.5L579.8 423.5Z" fill="#210a29" stroke="#210a29"></path><path d="M691.5 203.8L647.8 194.6L647.8 213.8Z" fill="#240930" stroke="#240930"></path><path d="M647.8 213.8L647.8 194.6L601.4 215.8Z" fill="#22092c" stroke="#22092c"></path><path d="M604.8 159.5L627.2 137.5L573.4 125.5Z" fill="#210a29" stroke="#210a29"></path><path d="M211.8 303.1L249.8 315.9L275.2 280.9Z" fill="#2e0245" stroke="#2e0245"></path><path d="M275.2 280.9L249.8 315.9L302.6 318.1Z" fill="#2e0245" stroke="#2e0245"></path><path d="M252.2 174.6L256.8 211.6L294.6 191.6Z" fill="#240930" stroke="#240930"></path><path d="M294.6 191.6L256.8 211.6L322.6 264.8Z" fill="#260833" stroke="#260833"></path><path d="M498.1 33.2L491.1 72.3L534.4 103.3Z" fill="#2e0245" stroke="#2e0245"></path><path d="M534.4 103.3L491.1 72.3L463.7 130.5Z" fill="#280736" stroke="#280736"></path><path d="M647.8 194.6L631.2 152.6L604.8 159.5Z" fill="#1f0a26" stroke="#1f0a26"></path><path d="M563.4 24.2L498.1 33.2L534.4 103.3Z" fill="#1d0a23" stroke="#1d0a23"></path><path d="M256.8 211.6L249.2 218.8L275.2 280.9Z" fill="#280736" stroke="#280736"></path><path d="M437.7 506.7L502.7 497.5L455.3 454.5Z" fill="#1d0a23" stroke="#1d0a23"></path><path d="M610.8 403.4L661.2 373.2L624.8 339.1Z" fill="#2d0341" stroke="#2d0341"></path><path d="M643.2 322.1L681.5 294.1L661.2 268.9Z" fill="#2b053e" stroke="#2b053e"></path><path d="M687.5 400.4L661.2 373.2L610.8 403.4Z" fill="#29063a" stroke="#29063a"></path><path d="M675.5 159.6L627.2 137.5L631.2 152.6Z" fill="#260833" stroke="#260833"></path><path d="M631.2 152.6L627.2 137.5L604.8 159.5Z" fill="#2e0245" stroke="#2e0245"></path><path d="M358.9 79.3L384.9 169.5L433.7 100.3Z" fill="#240930" stroke="#240930"></path><path d="M358.9 79.3L304.6 118.5L360.9 163.6Z" fill="#240930" stroke="#240930"></path><path d="M256.8 211.6L252.2 174.6L249.2 218.8Z" fill="#1f0a26" stroke="#1f0a26"></path><path d="M185.5 335.2L264.8 397.2L268.2 358.1Z" fill="#22092c" stroke="#22092c"></path><path d="M268.2 358.1L264.8 397.2L292.2 405.2Z" fill="#29063a" stroke="#29063a"></path><path d="M298.6 468.7L348.9 481.7L360.6 444.5Z" fill="#260833" stroke="#260833"></path><path d="M661.2 373.2L681.5 294.1L643.2 322.1Z" fill="#29063a" stroke="#29063a"></path><path d="M661.2 268.9L691.5 203.8L647.8 213.8Z" fill="#210a29" stroke="#210a29"></path><path d="M388.9 539.8L437.7 506.7L412.9 467.5Z" fill="#210a29" stroke="#210a29"></path><path d="M412.9 467.5L437.7 506.7L455.3 454.5Z" fill="#1d0a23" stroke="#1d0a23"></path><path d="M348.9 481.7L412.9 467.5L360.6 444.5Z" fill="#210a29" stroke="#210a29"></path><path d="M397.3 61.3L358.9 79.3L433.7 100.3Z" fill="#29063a" stroke="#29063a"></path><path d="M264.8 397.2L266.8 403.4L292.2 405.2Z" fill="#280736" stroke="#280736"></path><path d="M298.6 468.7L360.6 438.4L292.2 405.2Z" fill="#240930" stroke="#240930"></path><path d="M435.7 48.2L397.3 61.3L433.7 100.3Z" fill="#240930" stroke="#240930"></path><path d="M266.8 403.4L279.2 429.5L292.2 405.2Z" fill="#2b053e" stroke="#2b053e"></path><path d="M273.8 116.5L252.2 174.6L294.6 191.6Z" fill="#22092c" stroke="#22092c"></path><path d="M491.1 72.3L435.7 48.2L433.7 100.3Z" fill="#260833" stroke="#260833"></path><path d="M278.2 83.3L290.2 109.5L304.6 118.5Z" fill="#260833" stroke="#260833"></path><path d="M397.3 61.3L358.6 68.3L358.9 79.3Z" fill="#2b053e" stroke="#2b053e"></path><path d="M375.9 45.2L358.6 68.3L397.3 61.3Z" fill="#22092c" stroke="#22092c"></path><path d="M278.2 83.3L304.6 118.5L358.9 79.3Z" fill="#280736" stroke="#280736"></path><path d="M304.6 118.5L273.8 116.5L294.6 191.6Z" fill="#210a29" stroke="#210a29"></path><path d="M605.8 517.7L632.2 449.4L557.4 465.5Z" fill="#2d0341" stroke="#2d0341"></path><path d="M557.4 465.5L632.2 449.4L579.8 423.5Z" fill="#1d0a23" stroke="#1d0a23"></path><path d="M724.5 350.2L701.5 296.9L681.5 294.1Z" fill="#260833" stroke="#260833"></path><path d="M681.5 294.1L701.5 296.9L661.2 268.9Z" fill="#210a29" stroke="#210a29"></path><path d="M647.8 194.6L675.5 159.6L631.2 152.6Z" fill="#240930" stroke="#240930"></path><path d="M724.5 350.2L681.5 294.1L661.2 373.2Z" fill="#1d0a23" stroke="#1d0a23"></path><path d="M279.2 429.5L298.6 468.7L292.2 405.2Z" fill="#260833" stroke="#260833"></path><path d="M439.3 543.7L496.7 537.8L437.7 506.7Z" fill="#29063a" stroke="#29063a"></path><path d="M435.7 48.2L409.3 41.2L397.3 61.3Z" fill="#240930" stroke="#240930"></path><path d="M210.5 262.9L211.8 303.1L275.2 280.9Z" fill="#2b053e" stroke="#2b053e"></path><path d="M249.8 315.9L185.5 335.2L268.2 358.1Z" fill="#29063a" stroke="#29063a"></path><path d="M161.1 415.4L258.2 454.4L266.8 403.4Z" fill="#29063a" stroke="#29063a"></path><path d="M266.8 403.4L258.2 454.4L279.2 429.5Z" fill="#260833" stroke="#260833"></path><path d="M279.2 429.5L258.2 454.4L298.6 468.7Z" fill="#2e0245" stroke="#2e0245"></path><path d="M210.5 262.9L275.2 280.9L249.2 218.8Z" fill="#240930" stroke="#240930"></path><path d="M530.1 519.7L540.4 514.7L502.7 497.5Z" fill="#280736" stroke="#280736"></path><path d="M502.7 497.5L540.4 514.7L557.4 465.5Z" fill="#1f0a26" stroke="#1f0a26"></path><path d="M719.9 222.8L691.5 203.8L661.2 268.9Z" fill="#29063a" stroke="#29063a"></path><path d="M278.2 83.3L273.8 116.5L290.2 109.5Z" fill="#29063a" stroke="#29063a"></path><path d="M290.2 109.5L273.8 116.5L304.6 118.5Z" fill="#1f0a26" stroke="#1f0a26"></path><path d="M210.5 213.6L249.2 218.8L252.2 174.6Z" fill="#29063a" stroke="#29063a"></path><path d="M210.5 213.6L210.5 262.9L249.2 218.8Z" fill="#2b053e" stroke="#2b053e"></path><path d="M719.9 222.8L691.2 199.8L691.5 203.8Z" fill="#2d0341" stroke="#2d0341"></path><path d="M691.5 203.8L691.2 199.8L647.8 194.6Z" fill="#1d0a23" stroke="#1d0a23"></path><path d="M510.1 535.8L530.1 519.7L502.7 497.5Z" fill="#2e0245" stroke="#2e0245"></path><path d="M691.2 199.8L675.5 159.6L647.8 194.6Z" fill="#2b053e" stroke="#2b053e"></path><path d="M597.8 56.2L534.4 103.3L573.4 125.5Z" fill="#1d0a23" stroke="#1d0a23"></path><path d="M409.3 41.2L375.9 45.2L397.3 61.3Z" fill="#2b053e" stroke="#2b053e"></path><path d="M358.6 68.3L278.2 83.3L358.9 79.3Z" fill="#29063a" stroke="#29063a"></path><path d="M210.5 262.9L206.5 306.1L211.8 303.1Z" fill="#29063a" stroke="#29063a"></path><path d="M211.8 303.1L206.5 306.1L249.8 315.9Z" fill="#2b053e" stroke="#2b053e"></path><path d="M619.8 76.3L573.4 125.5L627.2 137.5Z" fill="#260833" stroke="#260833"></path><path d="M491.1 72.3L498.1 33.2L435.7 48.2Z" fill="#240930" stroke="#240930"></path><path d="M435.7 48.2L462.3 0L409.3 41.2Z" fill="#280736" stroke="#280736"></path><path d="M202.8 194.8L210.5 213.6L252.2 174.6Z" fill="#280736" stroke="#280736"></path><path d="M152.1 341.2L185.5 335.2L118.1 277.9Z" fill="#210a29" stroke="#210a29"></path><path d="M439.3 543.7L437.7 506.7L388.9 539.8Z" fill="#1f0a26" stroke="#1f0a26"></path><path d="M437.7 506.7L496.7 537.8L502.7 497.5Z" fill="#260833" stroke="#260833"></path><path d="M604.4 536.8L605.8 517.7L578.8 552.8Z" fill="#210a29" stroke="#210a29"></path><path d="M632.2 449.4L687.5 400.4L610.8 403.4Z" fill="#2e0245" stroke="#2e0245"></path><path d="M496.7 537.8L510.1 535.8L502.7 497.5Z" fill="#1f0a26" stroke="#1f0a26"></path><path d="M388.9 539.8L412.9 467.5L348.9 481.7Z" fill="#1d0a23" stroke="#1d0a23"></path><path d="M654.2 89.3L619.8 76.3L627.2 137.5Z" fill="#280736" stroke="#280736"></path><path d="M161.1 415.4L266.8 403.4L264.8 397.2Z" fill="#1f0a26" stroke="#1f0a26"></path><path d="M319.2 535.8L388.9 539.8L348.9 481.7Z" fill="#1d0a23" stroke="#1d0a23"></path><path d="M619.8 76.3L597.8 56.2L573.4 125.5Z" fill="#22092c" stroke="#22092c"></path><path d="M319.2 535.8L348.9 481.7L298.6 468.7Z" fill="#29063a" stroke="#29063a"></path><path d="M307.6 26.2L278.2 83.3L358.6 68.3Z" fill="#210a29" stroke="#210a29"></path><path d="M169.5 159.5L202.8 194.8L252.2 174.6Z" fill="#2e0245" stroke="#2e0245"></path><path d="M701.5 296.9L719.9 222.8L661.2 268.9Z" fill="#260833" stroke="#260833"></path><path d="M691.2 199.8L737.9 170.6L675.5 159.6Z" fill="#1f0a26" stroke="#1f0a26"></path><path d="M675.5 159.6L654.2 89.3L627.2 137.5Z" fill="#260833" stroke="#260833"></path><path d="M745.9 289.1L719.9 222.8L701.5 296.9Z" fill="#2b053e" stroke="#2b053e"></path><path d="M256.8 95.3L252.2 174.6L273.8 116.5Z" fill="#240930" stroke="#240930"></path><path d="M210.5 213.6L180.5 252.8L210.5 262.9Z" fill="#2e0245" stroke="#2e0245"></path><path d="M278.2 83.3L256.8 95.3L273.8 116.5Z" fill="#210a29" stroke="#210a29"></path><path d="M687.5 400.4L724.5 350.2L661.2 373.2Z" fill="#22092c" stroke="#22092c"></path><path d="M684.5 74.2L654.2 89.3L722.9 104.5Z" fill="#1d0a23" stroke="#1d0a23"></path><path d="M646.2 23.2L608.8 0L597.8 56.2Z" fill="#22092c" stroke="#22092c"></path><path d="M180.5 252.8L206.5 306.1L210.5 262.9Z" fill="#280736" stroke="#280736"></path><path d="M206.5 306.1L185.5 335.2L249.8 315.9Z" fill="#29063a" stroke="#29063a"></path><path d="M232.8 490.5L259.8 477.7L258.2 454.4Z" fill="#2e0245" stroke="#2e0245"></path><path d="M258.2 454.4L259.8 477.7L298.6 468.7Z" fill="#1f0a26" stroke="#1f0a26"></path><path d="M605.8 517.7L540.4 514.7L578.8 552.8Z" fill="#22092c" stroke="#22092c"></path><path d="M540.4 514.7L605.8 517.7L557.4 465.5Z" fill="#1d0a23" stroke="#1d0a23"></path><path d="M632.2 449.4L680.5 450.5L687.5 400.4Z" fill="#260833" stroke="#260833"></path><path d="M779.9 402.2L787.3 355.2L724.5 350.2Z" fill="#2d0341" stroke="#2d0341"></path><path d="M202.8 194.8L180.5 252.8L210.5 213.6Z" fill="#2d0341" stroke="#2d0341"></path><path d="M578.4 0L563.4 24.2L608.8 0Z" fill="#240930" stroke="#240930"></path><path d="M597.8 56.2L563.4 24.2L534.4 103.3Z" fill="#280736" stroke="#280736"></path><path d="M498.1 33.2L462.3 0L435.7 48.2Z" fill="#29063a" stroke="#29063a"></path><path d="M680.2 464.5L680.5 450.5L632.2 449.4Z" fill="#22092c" stroke="#22092c"></path><path d="M488.7 0L462.3 0L498.1 33.2Z" fill="#260833" stroke="#260833"></path><path d="M409.3 41.2L376.9 0L375.9 45.2Z" fill="#1d0a23" stroke="#1d0a23"></path><path d="M307.6 26.2L256.2 80.2L278.2 83.3Z" fill="#260833" stroke="#260833"></path><path d="M542.1 0L488.7 0L498.1 33.2Z" fill="#260833" stroke="#260833"></path><path d="M307.6 26.2L358.6 68.3L375.9 45.2Z" fill="#260833" stroke="#260833"></path><path d="M278.2 83.3L256.2 80.2L256.8 95.3Z" fill="#280736" stroke="#280736"></path><path d="M164.1 120.3L169.5 159.5L252.2 174.6Z" fill="#2b053e" stroke="#2b053e"></path><path d="M664.2 500.7L680.2 464.5L632.2 449.4Z" fill="#1d0a23" stroke="#1d0a23"></path><path d="M779.9 402.2L724.5 350.2L777.3 409.4Z" fill="#280736" stroke="#280736"></path><path d="M403.9 600L417.3 567.8L391.3 600Z" fill="#1f0a26" stroke="#1f0a26"></path><path d="M388.9 539.8L417.3 567.8L439.3 543.7Z" fill="#210a29" stroke="#210a29"></path><path d="M439.3 543.7L441.7 600L496.7 537.8Z" fill="#1f0a26" stroke="#1f0a26"></path><path d="M559.1 600L578.8 552.8L510.1 535.8Z" fill="#29063a" stroke="#29063a"></path><path d="M578.8 552.8L540.4 514.7L530.1 519.7Z" fill="#2d0341" stroke="#2d0341"></path><path d="M724.5 350.2L745.9 289.1L701.5 296.9Z" fill="#22092c" stroke="#22092c"></path><path d="M252.2 528.7L319.2 535.8L298.6 468.7Z" fill="#1d0a23" stroke="#1d0a23"></path><path d="M462.3 0L376.9 0L409.3 41.2Z" fill="#29063a" stroke="#29063a"></path><path d="M578.8 552.8L530.1 519.7L510.1 535.8Z" fill="#1d0a23" stroke="#1d0a23"></path><path d="M605.8 517.7L664.2 500.7L632.2 449.4Z" fill="#1d0a23" stroke="#1d0a23"></path><path d="M578.4 0L542.1 0L563.4 24.2Z" fill="#2b053e" stroke="#2b053e"></path><path d="M563.4 24.2L542.1 0L498.1 33.2Z" fill="#280736" stroke="#280736"></path><path d="M559.1 600L510.1 535.8L496.7 537.8Z" fill="#1d0a23" stroke="#1d0a23"></path><path d="M325.6 0L307.6 26.2L375.9 45.2Z" fill="#1f0a26" stroke="#1f0a26"></path><path d="M669.2 539.8L664.2 500.7L605.8 517.7Z" fill="#2e0245" stroke="#2e0245"></path><path d="M669.2 539.8L605.8 517.7L604.4 536.8Z" fill="#2d0341" stroke="#2d0341"></path><path d="M807.3 242.8L737.9 170.6L719.9 222.8Z" fill="#29063a" stroke="#29063a"></path><path d="M719.9 222.8L737.9 170.6L691.2 199.8Z" fill="#29063a" stroke="#29063a"></path><path d="M724.5 350.2L761.9 288.9L745.9 289.1Z" fill="#2d0341" stroke="#2d0341"></path><path d="M745.9 289.1L770.3 286.1L719.9 222.8Z" fill="#280736" stroke="#280736"></path><path d="M770.3 286.1L761.9 288.9L787.3 355.2Z" fill="#280736" stroke="#280736"></path><path d="M761.9 288.9L724.5 350.2L787.3 355.2Z" fill="#1d0a23" stroke="#1d0a23"></path><path d="M164.5 448.4L232.8 490.5L258.2 454.4Z" fill="#1f0a26" stroke="#1f0a26"></path><path d="M259.8 477.7L252.2 528.7L298.6 468.7Z" fill="#1f0a26" stroke="#1f0a26"></path><path d="M608.8 0L563.4 24.2L597.8 56.2Z" fill="#22092c" stroke="#22092c"></path><path d="M646.2 23.2L619.8 76.3L654.2 89.3Z" fill="#22092c" stroke="#22092c"></path><path d="M722.9 104.5L654.2 89.3L675.5 159.6Z" fill="#280736" stroke="#280736"></path><path d="M118.1 277.9L185.5 335.2L206.5 306.1Z" fill="#210a29" stroke="#210a29"></path><path d="M185.5 335.2L161.1 415.4L264.8 397.2Z" fill="#22092c" stroke="#22092c"></path><path d="M376.9 0L325.6 0L375.9 45.2Z" fill="#2e0245" stroke="#2e0245"></path><path d="M307.6 26.2L275.8 0L256.2 80.2Z" fill="#29063a" stroke="#29063a"></path><path d="M687.5 400.4L777.3 409.4L724.5 350.2Z" fill="#240930" stroke="#240930"></path><path d="M761.9 288.9L770.3 286.1L745.9 289.1Z" fill="#1d0a23" stroke="#1d0a23"></path><path d="M164.1 120.3L252.2 174.6L256.8 95.3Z" fill="#1d0a23" stroke="#1d0a23"></path><path d="M202.8 194.8L115.1 198.6L180.5 252.8Z" fill="#2d0341" stroke="#2d0341"></path><path d="M104.7 301.9L133.1 351.1L152.1 341.2Z" fill="#22092c" stroke="#22092c"></path><path d="M164.1 120.3L256.8 95.3L204.8 49.2Z" fill="#280736" stroke="#280736"></path><path d="M737.9 170.6L727.9 122.3L675.5 159.6Z" fill="#29063a" stroke="#29063a"></path><path d="M741.5 105.5L727.9 122.3L737.9 170.6Z" fill="#2e0245" stroke="#2e0245"></path><path d="M191.5 498.5L224.5 498.7L232.8 490.5Z" fill="#280736" stroke="#280736"></path><path d="M232.8 490.5L252.2 528.7L259.8 477.7Z" fill="#2b053e" stroke="#2b053e"></path><path d="M403.9 600L441.7 600L417.3 567.8Z" fill="#260833" stroke="#260833"></path><path d="M417.3 567.8L441.7 600L439.3 543.7Z" fill="#2b053e" stroke="#2b053e"></path><path d="M417.3 567.8L388.9 539.8L391.3 600Z" fill="#1f0a26" stroke="#1f0a26"></path><path d="M727.9 122.3L722.9 104.5L675.5 159.6Z" fill="#260833" stroke="#260833"></path><path d="M646.2 23.2L597.8 56.2L619.8 76.3Z" fill="#260833" stroke="#260833"></path><path d="M646.2 23.2L654.2 89.3L684.5 74.2Z" fill="#22092c" stroke="#22092c"></path><path d="M703.5 0L646.2 23.2L684.5 74.2Z" fill="#2d0341" stroke="#2d0341"></path><path d="M224.5 498.7L252.2 528.7L232.8 490.5Z" fill="#210a29" stroke="#210a29"></path><path d="M391.3 600L388.9 539.8L337.6 589.8Z" fill="#1d0a23" stroke="#1d0a23"></path><path d="M337.6 589.8L388.9 539.8L319.2 535.8Z" fill="#280736" stroke="#280736"></path><path d="M152.1 341.2L161.1 415.4L185.5 335.2Z" fill="#2e0245" stroke="#2e0245"></path><path d="M317.2 600L337.6 589.8L310.6 600Z" fill="#1d0a23" stroke="#1d0a23"></path><path d="M325.6 0L286.2 0L307.6 26.2Z" fill="#1d0a23" stroke="#1d0a23"></path><path d="M118.1 277.9L206.5 306.1L180.5 252.8Z" fill="#210a29" stroke="#210a29"></path><path d="M152.1 341.2L133.1 351.1L161.1 415.4Z" fill="#22092c" stroke="#22092c"></path><path d="M671.5 562.8L669.2 539.8L604.4 536.8Z" fill="#280736" stroke="#280736"></path><path d="M664.2 500.7L680.5 533.7L680.2 464.5Z" fill="#240930" stroke="#240930"></path><path d="M610.8 600L604.4 536.8L578.8 552.8Z" fill="#280736" stroke="#280736"></path><path d="M441.7 600L559.1 600L496.7 537.8Z" fill="#280736" stroke="#280736"></path><path d="M727.9 122.3L741.5 105.5L722.9 104.5Z" fill="#2b053e" stroke="#2b053e"></path><path d="M722.9 104.5L724.5 74.3L684.5 74.2Z" fill="#2b053e" stroke="#2b053e"></path><path d="M824.3 177.6L741.5 105.5L737.9 170.6Z" fill="#2b053e" stroke="#2b053e"></path><path d="M204.8 49.2L256.8 95.3L256.2 80.2Z" fill="#2b053e" stroke="#2b053e"></path><path d="M115.1 264.8L118.1 277.9L180.5 252.8Z" fill="#29063a" stroke="#29063a"></path><path d="M286.2 0L275.8 0L307.6 26.2Z" fill="#280736" stroke="#280736"></path><path d="M671.5 562.8L680.5 533.7L669.2 539.8Z" fill="#29063a" stroke="#29063a"></path><path d="M669.2 539.8L680.5 533.7L664.2 500.7Z" fill="#280736" stroke="#280736"></path><path d="M130.1 476.5L164.5 448.4L161.1 415.4Z" fill="#240930" stroke="#240930"></path><path d="M161.1 415.4L164.5 448.4L258.2 454.4Z" fill="#260833" stroke="#260833"></path><path d="M224.5 498.7L190.5 546.8L252.2 528.7Z" fill="#260833" stroke="#260833"></path><path d="M687.5 400.4L680.5 450.5L777.3 409.4Z" fill="#22092c" stroke="#22092c"></path><path d="M770.3 286.1L807.3 242.8L719.9 222.8Z" fill="#1f0a26" stroke="#1f0a26"></path><path d="M741.5 105.5L724.5 74.3L722.9 104.5Z" fill="#22092c" stroke="#22092c"></path><path d="M115.1 264.8L180.5 252.8L115.1 198.6Z" fill="#2b053e" stroke="#2b053e"></path><path d="M646.2 23.2L648.2 0L608.8 0Z" fill="#260833" stroke="#260833"></path><path d="M703.5 0L648.2 0L646.2 23.2Z" fill="#2d0341" stroke="#2d0341"></path><path d="M164.5 448.4L191.5 498.5L232.8 490.5Z" fill="#240930" stroke="#240930"></path><path d="M310.6 600L337.6 589.8L319.2 535.8Z" fill="#1d0a23" stroke="#1d0a23"></path><path d="M115.1 198.6L202.8 194.8L169.5 159.5Z" fill="#260833" stroke="#260833"></path><path d="M118.1 277.9L104.7 301.9L152.1 341.2Z" fill="#280736" stroke="#280736"></path><path d="M228.5 18.2L204.8 49.2L256.2 80.2Z" fill="#2e0245" stroke="#2e0245"></path><path d="M777.3 409.4L680.5 450.5L785.9 433.4Z" fill="#260833" stroke="#260833"></path><path d="M785.9 433.4L680.5 450.5L766.9 500.5Z" fill="#1f0a26" stroke="#1f0a26"></path><path d="M559.1 600L595.4 600L578.8 552.8Z" fill="#2e0245" stroke="#2e0245"></path><path d="M310.6 600L319.2 535.8L265.8 580.8Z" fill="#210a29" stroke="#210a29"></path><path d="M337.6 589.8L317.2 600L391.3 600Z" fill="#210a29" stroke="#210a29"></path><path d="M275.8 0L228.5 18.2L256.2 80.2Z" fill="#240930" stroke="#240930"></path><path d="M204.8 49.2L153.5 109.3L164.1 120.3Z" fill="#280736" stroke="#280736"></path><path d="M164.1 120.3L116.1 146.5L169.5 159.5Z" fill="#260833" stroke="#260833"></path><path d="M116.1 146.5L111.7 88.3L111.7 146.5Z" fill="#22092c" stroke="#22092c"></path><path d="M265.8 580.8L319.2 535.8L252.2 528.7Z" fill="#29063a" stroke="#29063a"></path><path d="M816.3 248.9L770.3 286.1L787.3 355.2Z" fill="#1f0a26" stroke="#1f0a26"></path><path d="M816.3 248.9L807.3 242.8L770.3 286.1Z" fill="#1f0a26" stroke="#1f0a26"></path><path d="M116.1 146.5L115.1 198.6L169.5 159.5Z" fill="#280736" stroke="#280736"></path><path d="M595.4 600L610.8 600L578.8 552.8Z" fill="#1d0a23" stroke="#1d0a23"></path><path d="M648.2 600L671.5 562.8L604.4 536.8Z" fill="#29063a" stroke="#29063a"></path><path d="M766.9 500.5L680.5 450.5L680.2 464.5Z" fill="#1d0a23" stroke="#1d0a23"></path><path d="M85.7 289.1L104.7 301.9L118.1 277.9Z" fill="#210a29" stroke="#210a29"></path><path d="M133.1 351.1L85.4 395.2L161.1 415.4Z" fill="#2d0341" stroke="#2d0341"></path><path d="M85.7 289.1L118.1 277.9L115.1 264.8Z" fill="#1d0a23" stroke="#1d0a23"></path><path d="M190.5 546.8L265.8 580.8L252.2 528.7Z" fill="#2e0245" stroke="#2e0245"></path><path d="M840.6 245.8L816.3 248.9L787.3 355.2Z" fill="#280736" stroke="#280736"></path><path d="M807.3 242.8L825.6 189.6L737.9 170.6Z" fill="#1d0a23" stroke="#1d0a23"></path><path d="M777.3 409.4L785.9 433.4L779.9 402.2Z" fill="#210a29" stroke="#210a29"></path><path d="M779.9 402.2L847.6 382.2L787.3 355.2Z" fill="#2e0245" stroke="#2e0245"></path><path d="M723.9 546.8L680.2 464.5L680.5 533.7Z" fill="#2d0341" stroke="#2d0341"></path><path d="M116.1 146.5L153.5 109.3L111.7 88.3Z" fill="#210a29" stroke="#210a29"></path><path d="M153.5 109.3L116.1 146.5L164.1 120.3Z" fill="#2d0341" stroke="#2d0341"></path><path d="M74.4 272.9L85.7 289.1L115.1 264.8Z" fill="#240930" stroke="#240930"></path><path d="M610.8 600L648.2 600L604.4 536.8Z" fill="#240930" stroke="#240930"></path><path d="M671.5 562.8L723.9 546.8L680.5 533.7Z" fill="#1f0a26" stroke="#1f0a26"></path><path d="M172.1 25.2L153.5 109.3L204.8 49.2Z" fill="#2b053e" stroke="#2b053e"></path><path d="M116.1 146.5L111.7 146.5L115.1 198.6Z" fill="#280736" stroke="#280736"></path><path d="M74.4 272.9L115.1 264.8L73.7 212.8Z" fill="#280736" stroke="#280736"></path><path d="M104.7 301.9L80.7 331.2L133.1 351.1Z" fill="#280736" stroke="#280736"></path><path d="M766.9 0L703.5 0L724.5 74.3Z" fill="#2b053e" stroke="#2b053e"></path><path d="M724.5 74.3L703.5 0L684.5 74.2Z" fill="#29063a" stroke="#29063a"></path><path d="M766.9 0L724.5 74.3L777.9 12.2Z" fill="#2e0245" stroke="#2e0245"></path><path d="M678.5 600L723.9 546.8L671.5 562.8Z" fill="#1d0a23" stroke="#1d0a23"></path><path d="M191.5 498.5L190.5 546.8L224.5 498.7Z" fill="#22092c" stroke="#22092c"></path><path d="M143.1 529.8L190.5 546.8L191.5 498.5Z" fill="#210a29" stroke="#210a29"></path><path d="M130.1 476.5L191.5 498.5L164.5 448.4Z" fill="#260833" stroke="#260833"></path><path d="M723.9 546.8L766.9 500.5L680.2 464.5Z" fill="#240930" stroke="#240930"></path><path d="M840.6 245.8L825.6 189.6L807.3 242.8Z" fill="#1f0a26" stroke="#1f0a26"></path><path d="M85.7 289.1L80.7 331.2L104.7 301.9Z" fill="#2b053e" stroke="#2b053e"></path><path d="M85.4 395.2L130.1 476.5L161.1 415.4Z" fill="#22092c" stroke="#22092c"></path><path d="M825.6 189.6L824.3 177.6L737.9 170.6Z" fill="#210a29" stroke="#210a29"></path><path d="M73.7 212.8L115.1 264.8L115.1 198.6Z" fill="#2b053e" stroke="#2b053e"></path><path d="M85.7 289.1L29.4 306.1L80.7 331.2Z" fill="#1d0a23" stroke="#1d0a23"></path><path d="M180.5 0L172.1 25.2L228.5 18.2Z" fill="#260833" stroke="#260833"></path><path d="M228.5 18.2L172.1 25.2L204.8 49.2Z" fill="#240930" stroke="#240930"></path><path d="M900 332.2L840.6 245.8L787.3 355.2Z" fill="#280736" stroke="#280736"></path><path d="M816.3 248.9L840.6 245.8L807.3 242.8Z" fill="#210a29" stroke="#210a29"></path><path d="M862.6 172.5L844.3 139.5L824.3 177.6Z" fill="#22092c" stroke="#22092c"></path><path d="M847.6 382.2L779.9 402.2L785.9 433.4Z" fill="#240930" stroke="#240930"></path><path d="M648.2 600L678.5 600L671.5 562.8Z" fill="#240930" stroke="#240930"></path><path d="M780.9 538.7L784.3 491.7L766.9 500.5Z" fill="#280736" stroke="#280736"></path><path d="M780.9 538.7L766.9 500.5L723.9 546.8Z" fill="#2e0245" stroke="#2e0245"></path><path d="M766.9 500.5L784.3 491.7L785.9 433.4Z" fill="#22092c" stroke="#22092c"></path><path d="M66.7 387.4L85.4 395.2L80.7 331.2Z" fill="#210a29" stroke="#210a29"></path><path d="M80.7 331.2L85.4 395.2L133.1 351.1Z" fill="#1d0a23" stroke="#1d0a23"></path><path d="M63.7 175.6L73.7 212.8L115.1 198.6Z" fill="#1f0a26" stroke="#1f0a26"></path><path d="M63.7 175.6L115.1 198.6L111.7 146.5Z" fill="#280736" stroke="#280736"></path><path d="M275.8 0L180.5 0L228.5 18.2Z" fill="#2b053e" stroke="#2b053e"></path><path d="M119.7 67.2L111.7 88.3L153.5 109.3Z" fill="#1d0a23" stroke="#1d0a23"></path><path d="M119.7 67.2L153.5 109.3L172.1 25.2Z" fill="#1d0a23" stroke="#1d0a23"></path><path d="M103.1 479.7L143.1 529.8L130.1 476.5Z" fill="#1d0a23" stroke="#1d0a23"></path><path d="M130.1 476.5L143.1 529.8L191.5 498.5Z" fill="#2b053e" stroke="#2b053e"></path><path d="M190.5 546.8L208.5 600L265.8 580.8Z" fill="#29063a" stroke="#29063a"></path><path d="M265.8 580.8L208.5 600L310.6 600Z" fill="#210a29" stroke="#210a29"></path><path d="M126.1 0L119.7 67.2L172.1 25.2Z" fill="#280736" stroke="#280736"></path><path d="M868.6 383.4L847.6 382.2L863.6 468.7Z" fill="#2e0245" stroke="#2e0245"></path><path d="M198.8 600L208.5 600L190.5 546.8Z" fill="#1d0a23" stroke="#1d0a23"></path><path d="M0 346.2L66.7 387.4L80.7 331.2Z" fill="#2e0245" stroke="#2e0245"></path><path d="M85.4 395.2L103.1 479.7L130.1 476.5Z" fill="#240930" stroke="#240930"></path><path d="M29.4 306.1L85.7 289.1L74.4 272.9Z" fill="#1f0a26" stroke="#1f0a26"></path><path d="M76.7 468.5L103.1 479.7L85.4 395.2Z" fill="#1f0a26" stroke="#1f0a26"></path><path d="M51.4 119.5L63.7 175.6L111.7 146.5Z" fill="#2e0245" stroke="#2e0245"></path><path d="M10.4 247.8L29.4 306.1L74.4 272.9Z" fill="#240930" stroke="#240930"></path><path d="M51.4 119.5L111.7 146.5L111.7 88.3Z" fill="#240930" stroke="#240930"></path><path d="M166.1 600L198.8 600L190.5 546.8Z" fill="#240930" stroke="#240930"></path><path d="M166.1 600L190.5 546.8L143.1 529.8Z" fill="#29063a" stroke="#29063a"></path><path d="M862.6 172.5L825.6 189.6L840.6 245.8Z" fill="#240930" stroke="#240930"></path><path d="M862.6 172.5L824.3 177.6L825.6 189.6Z" fill="#210a29" stroke="#210a29"></path><path d="M824.3 177.6L844.3 139.5L741.5 105.5Z" fill="#22092c" stroke="#22092c"></path><path d="M743.9 600L780.9 538.7L723.9 546.8Z" fill="#1f0a26" stroke="#1f0a26"></path><path d="M863.6 468.7L847.6 382.2L785.9 433.4Z" fill="#240930" stroke="#240930"></path><path d="M777.9 12.2L724.5 74.3L741.5 105.5Z" fill="#280736" stroke="#280736"></path><path d="M833.6 62.2L777.9 12.2L741.5 105.5Z" fill="#210a29" stroke="#210a29"></path><path d="M900 214.8L862.6 172.5L840.6 245.8Z" fill="#260833" stroke="#260833"></path><path d="M841.3 29.2L785.3 0L777.9 12.2Z" fill="#210a29" stroke="#210a29"></path><path d="M840.3 483.5L785.9 433.4L784.3 491.7Z" fill="#1d0a23" stroke="#1d0a23"></path><path d="M847.6 382.2L900 332.2L787.3 355.2Z" fill="#2d0341" stroke="#2d0341"></path><path d="M44.4 444.5L76.7 468.5L85.4 395.2Z" fill="#210a29" stroke="#210a29"></path><path d="M103.1 479.7L90.7 537.8L143.1 529.8Z" fill="#2b053e" stroke="#2b053e"></path><path d="M678.5 600L743.9 600L723.9 546.8Z" fill="#29063a" stroke="#29063a"></path><path d="M44.4 444.5L77.7 480.7L76.7 468.5Z" fill="#22092c" stroke="#22092c"></path><path d="M76.7 468.5L77.7 480.7L103.1 479.7Z" fill="#210a29" stroke="#210a29"></path><path d="M10.4 247.8L74.4 272.9L73.7 212.8Z" fill="#2e0245" stroke="#2e0245"></path><path d="M66.7 387.4L44.4 444.5L85.4 395.2Z" fill="#2e0245" stroke="#2e0245"></path><path d="M112.7 600L166.1 600L143.1 529.8Z" fill="#240930" stroke="#240930"></path><path d="M900 255.9L887.6 246.9L840.6 245.8Z" fill="#2e0245" stroke="#2e0245"></path><path d="M780.9 538.7L840.3 483.5L784.3 491.7Z" fill="#260833" stroke="#260833"></path><path d="M840.6 551.8L840.3 483.5L780.9 538.7Z" fill="#1d0a23" stroke="#1d0a23"></path><path d="M833.6 62.2L741.5 105.5L843.3 79.3Z" fill="#2e0245" stroke="#2e0245"></path><path d="M777.9 12.2L785.3 0L766.9 0Z" fill="#29063a" stroke="#29063a"></path><path d="M180.5 0L126.1 0L172.1 25.2Z" fill="#2d0341" stroke="#2d0341"></path><path d="M50.4 85.3L51.4 119.5L111.7 88.3Z" fill="#2b053e" stroke="#2b053e"></path><path d="M843.3 79.3L741.5 105.5L844.3 139.5Z" fill="#260833" stroke="#260833"></path><path d="M843.3 79.3L900 112.5L868.6 59.3Z" fill="#22092c" stroke="#22092c"></path><path d="M900 119.3L844.3 139.5L862.6 172.5Z" fill="#1d0a23" stroke="#1d0a23"></path><path d="M50.4 85.3L111.7 88.3L71.4 45.2Z" fill="#240930" stroke="#240930"></path><path d="M12.4 204.6L10.4 247.8L73.7 212.8Z" fill="#22092c" stroke="#22092c"></path><path d="M900 359.1L890.6 360.1L900 409.4Z" fill="#280736" stroke="#280736"></path><path d="M868.6 383.4L890.6 360.1L847.6 382.2Z" fill="#210a29" stroke="#210a29"></path><path d="M900 332.2L900 255.9L840.6 245.8Z" fill="#2b053e" stroke="#2b053e"></path><path d="M887.6 246.9L900 214.8L840.6 245.8Z" fill="#22092c" stroke="#22092c"></path><path d="M15.4 448.4L44.4 444.5L0 424.4Z" fill="#2e0245" stroke="#2e0245"></path><path d="M77.7 480.7L90.7 537.8L103.1 479.7Z" fill="#1f0a26" stroke="#1f0a26"></path><path d="M890.6 360.1L900 332.2L847.6 382.2Z" fill="#260833" stroke="#260833"></path><path d="M840.3 483.5L863.6 468.7L785.9 433.4Z" fill="#1f0a26" stroke="#1f0a26"></path><path d="M890.6 360.1L900 359.1L900 332.2Z" fill="#29063a" stroke="#29063a"></path><path d="M862.6 496.5L863.6 468.7L840.3 483.5Z" fill="#280736" stroke="#280736"></path><path d="M35.4 512.7L90.7 537.8L77.7 480.7Z" fill="#240930" stroke="#240930"></path><path d="M900 255.9L900 214.8L887.6 246.9Z" fill="#1d0a23" stroke="#1d0a23"></path><path d="M12.4 204.6L73.7 212.8L63.7 175.6Z" fill="#210a29" stroke="#210a29"></path><path d="M29.4 306.1L0 346.2L80.7 331.2Z" fill="#210a29" stroke="#210a29"></path><path d="M900 409.4L890.6 360.1L868.6 383.4Z" fill="#2b053e" stroke="#2b053e"></path><path d="M900 214.8L900 191.6L862.6 172.5Z" fill="#1d0a23" stroke="#1d0a23"></path><path d="M0 175.5L12.4 204.6L63.7 175.6Z" fill="#22092c" stroke="#22092c"></path><path d="M71.4 45.2L111.7 88.3L119.7 67.2Z" fill="#2d0341" stroke="#2d0341"></path><path d="M0 175.5L0 211.8L12.4 204.6Z" fill="#2e0245" stroke="#2e0245"></path><path d="M98.7 0L71.4 45.2L119.7 67.2Z" fill="#2b053e" stroke="#2b053e"></path><path d="M126.1 0L98.7 0L119.7 67.2Z" fill="#210a29" stroke="#210a29"></path><path d="M743.9 600L812.3 570.8L780.9 538.7Z" fill="#29063a" stroke="#29063a"></path><path d="M0 216.6L0 278.9L10.4 247.8Z" fill="#260833" stroke="#260833"></path><path d="M10.4 247.8L0 278.9L29.4 306.1Z" fill="#1d0a23" stroke="#1d0a23"></path><path d="M0 278.9L0 311.1L29.4 306.1Z" fill="#29063a" stroke="#29063a"></path><path d="M840.6 551.8L862.6 496.5L840.3 483.5Z" fill="#280736" stroke="#280736"></path><path d="M863.6 468.7L900 409.4L868.6 383.4Z" fill="#240930" stroke="#240930"></path><path d="M868.6 59.3L841.3 29.2L833.6 62.2Z" fill="#2d0341" stroke="#2d0341"></path><path d="M833.6 62.2L841.3 29.2L777.9 12.2Z" fill="#29063a" stroke="#29063a"></path><path d="M868.6 59.3L833.6 62.2L843.3 79.3Z" fill="#1d0a23" stroke="#1d0a23"></path><path d="M900 480.7L900 409.4L863.6 468.7Z" fill="#280736" stroke="#280736"></path><path d="M0 311.1L0 346.2L29.4 306.1Z" fill="#2d0341" stroke="#2d0341"></path><path d="M12.4 204.6L0 216.6L10.4 247.8Z" fill="#1d0a23" stroke="#1d0a23"></path><path d="M0 211.8L0 216.6L12.4 204.6Z" fill="#2b053e" stroke="#2b053e"></path><path d="M0 175.5L63.7 175.6L51.4 119.5Z" fill="#2e0245" stroke="#2e0245"></path><path d="M900 112.5L843.3 79.3L844.3 139.5Z" fill="#22092c" stroke="#22092c"></path><path d="M812.3 570.8L840.6 551.8L780.9 538.7Z" fill="#2e0245" stroke="#2e0245"></path><path d="M862.6 496.5L900 480.7L863.6 468.7Z" fill="#2d0341" stroke="#2d0341"></path><path d="M90.7 537.8L112.7 600L143.1 529.8Z" fill="#240930" stroke="#240930"></path><path d="M37.4 553.8L112.7 600L90.7 537.8Z" fill="#1f0a26" stroke="#1f0a26"></path><path d="M35.4 512.7L77.7 480.7L44.4 444.5Z" fill="#240930" stroke="#240930"></path><path d="M0 103.3L0 175.5L51.4 119.5Z" fill="#280736" stroke="#280736"></path><path d="M0 103.3L51.4 119.5L50.4 85.3Z" fill="#240930" stroke="#240930"></path><path d="M900 191.6L900 119.3L862.6 172.5Z" fill="#1d0a23" stroke="#1d0a23"></path><path d="M0 424.4L44.4 444.5L66.7 387.4Z" fill="#29063a" stroke="#29063a"></path><path d="M900 119.3L900 112.5L844.3 139.5Z" fill="#2b053e" stroke="#2b053e"></path><path d="M0 346.2L0 424.4L66.7 387.4Z" fill="#29063a" stroke="#29063a"></path><path d="M0 424.4L0 425.5L15.4 448.4Z" fill="#2e0245" stroke="#2e0245"></path><path d="M15.4 448.4L35.4 512.7L44.4 444.5Z" fill="#22092c" stroke="#22092c"></path><path d="M0 540.7L35.4 512.7L15.4 448.4Z" fill="#22092c" stroke="#22092c"></path><path d="M743.9 600L823.3 600L812.3 570.8Z" fill="#22092c" stroke="#22092c"></path><path d="M812.3 570.8L825.6 600L840.6 551.8Z" fill="#210a29" stroke="#210a29"></path><path d="M900 491.5L900 480.7L862.6 496.5Z" fill="#210a29" stroke="#210a29"></path><path d="M900 491.5L862.6 496.5L840.6 551.8Z" fill="#2d0341" stroke="#2d0341"></path><path d="M823.3 600L825.6 600L812.3 570.8Z" fill="#2b053e" stroke="#2b053e"></path><path d="M900 587.8L900 491.5L840.6 551.8Z" fill="#29063a" stroke="#29063a"></path><path d="M0 24.2L50.4 85.3L71.4 45.2Z" fill="#260833" stroke="#260833"></path><path d="M0 24.2L0 103.3L50.4 85.3Z" fill="#280736" stroke="#280736"></path><path d="M868.6 59.3L865.6 0L841.3 29.2Z" fill="#1f0a26" stroke="#1f0a26"></path><path d="M841.3 29.2L865.6 0L785.3 0Z" fill="#29063a" stroke="#29063a"></path><path d="M900 56.2L865.6 0L868.6 59.3Z" fill="#240930" stroke="#240930"></path><path d="M900 112.5L900 56.2L868.6 59.3Z" fill="#280736" stroke="#280736"></path><path d="M98.7 0L48.4 0L71.4 45.2Z" fill="#210a29" stroke="#210a29"></path><path d="M0 540.7L37.4 553.8L35.4 512.7Z" fill="#1f0a26" stroke="#1f0a26"></path><path d="M35.4 512.7L37.4 553.8L90.7 537.8Z" fill="#2b053e" stroke="#2b053e"></path><path d="M900 56.2L900 0L865.6 0Z" fill="#1f0a26" stroke="#1f0a26"></path><path d="M48.4 0L0 24.2L71.4 45.2Z" fill="#2d0341" stroke="#2d0341"></path><path d="M0 425.5L0 540.7L15.4 448.4Z" fill="#1f0a26" stroke="#1f0a26"></path><path d="M37.4 553.8L31.4 600L112.7 600Z" fill="#1f0a26" stroke="#1f0a26"></path><path d="M0 578.8L31.4 600L37.4 553.8Z" fill="#210a29" stroke="#210a29"></path><path d="M48.4 0L0 0L0 24.2Z" fill="#2d0341" stroke="#2d0341"></path><path d="M825.6 600L900 587.8L840.6 551.8Z" fill="#1d0a23" stroke="#1d0a23"></path><path d="M825.6 600L900 600L900 587.8Z" fill="#2e0245" stroke="#2e0245"></path><path d="M0 540.7L0 578.8L37.4 553.8Z" fill="#280736" stroke="#280736"></path><path d="M0 578.8L0 600L31.4 600Z" fill="#2e0245" stroke="#2e0245"></path></g></svg>