<svg id="visual" viewBox="0 0 900 300" width="900" height="300" xmlns="http://www.w3.org/2000/svg" xmlns:xlink="http://www.w3.org/1999/xlink" version="1.1"><rect x="0" y="0" width="900" height="300" fill="#001220"></rect><path d="M0 256L7.5 254.7C15 253.3 30 250.7 45 249.8C60 249 75 250 90 250.2C105 250.3 120 249.7 135 252.3C150 255 165 261 180 262C195 263 210 259 225 254.8C240 250.7 255 246.3 270 247.2C285 248 300 254 315 258C330 262 345 264 360 261.7C375 259.3 390 252.7 405 252.5C420 252.3 435 258.7 450 261.8C465 265 480 265 495 261.8C510 258.7 525 252.3 540 251C555 249.7 570 253.3 585 256C600 258.7 615 260.3 630 261.5C645 262.7 660 263.3 675 260.2C690 257 705 250 720 249.8C735 249.7 750 256.3 765 257.5C780 258.7 795 254.3 810 252.2C825 250 840 250 855 250.8C870 251.7 885 253.3 892.5 254.2L900 255L900 301L892.5 301C885 301 870 301 855 301C840 301 825 301 810 301C795 301 780 301 765 301C750 301 735 301 720 301C705 301 690 301 675 301C660 301 645 301 630 301C615 301 600 301 585 301C570 301 555 301 540 301C525 301 510 301 495 301C480 301 465 301 450 301C435 301 420 301 405 301C390 301 375 301 360 301C345 301 330 301 315 301C300 301 285 301 270 301C255 301 240 301 225 301C210 301 195 301 180 301C165 301 150 301 135 301C120 301 105 301 90 301C75 301 60 301 45 301C30 301 15 301 7.5 301L0 301Z" fill="#c62368"></path><path d="M0 250L7.5 251.5C15 253 30 256 45 259.5C60 263 75 267 90 266.2C105 265.3 120 259.7 135 256.3C150 253 165 252 180 251.2C195 250.3 210 249.7 225 250.7C240 251.7 255 254.3 270 256.7C285 259 300 261 315 260.7C330 260.3 345 257.7 360 256.8C375 256 390 257 405 255.8C420 254.7 435 251.3 450 252.2C465 253 480 258 495 258.5C510 259 525 255 540 254.7C555 254.3 570 257.7 585 259.2C600 260.7 615 260.3 630 261.2C645 262 660 264 675 263.5C690 263 705 260 720 259.8C735 259.7 750 262.3 765 264.3C780 266.3 795 267.7 810 265.8C825 264 840 259 855 256.2C870 253.3 885 252.7 892.5 252.3L900 252L900 301L892.5 301C885 301 870 301 855 301C840 301 825 301 810 301C795 301 780 301 765 301C750 301 735 301 720 301C705 301 690 301 675 301C660 301 645 301 630 301C615 301 600 301 585 301C570 301 555 301 540 301C525 301 510 301 495 301C480 301 465 301 450 301C435 301 420 301 405 301C390 301 375 301 360 301C345 301 330 301 315 301C300 301 285 301 270 301C255 301 240 301 225 301C210 301 195 301 180 301C165 301 150 301 135 301C120 301 105 301 90 301C75 301 60 301 45 301C30 301 15 301 7.5 301L0 301Z" fill="#c62579"></path><path d="M0 258L7.5 258.7C15 259.3 30 260.7 45 263.3C60 266 75 270 90 268.8C105 267.7 120 261.3 135 260C150 258.7 165 262.3 180 265C195 267.7 210 269.3 225 270C240 270.7 255 270.3 270 269.3C285 268.3 300 266.7 315 265.2C330 263.7 345 262.3 360 262.3C375 262.3 390 263.7 405 264.5C420 265.3 435 265.7 450 265.2C465 264.7 480 263.3 495 263.8C510 264.3 525 266.7 540 267.2C555 267.7 570 266.3 585 264.2C600 262 615 259 630 258.2C645 257.3 660 258.7 675 258.5C690 258.3 705 256.7 720 258.8C735 261 750 267 765 268.7C780 270.3 795 267.7 810 264.7C825 261.7 840 258.3 855 257.2C870 256 885 257 892.5 257.5L900 258L900 301L892.5 301C885 301 870 301 855 301C840 301 825 301 810 301C795 301 780 301 765 301C750 301 735 301 720 301C705 301 690 301 675 301C660 301 645 301 630 301C615 301 600 301 585 301C570 301 555 301 540 301C525 301 510 301 495 301C480 301 465 301 450 301C435 301 420 301 405 301C390 301 375 301 360 301C345 301 330 301 315 301C300 301 285 301 270 301C255 301 240 301 225 301C210 301 195 301 180 301C165 301 150 301 135 301C120 301 105 301 90 301C75 301 60 301 45 301C30 301 15 301 7.5 301L0 301Z" fill="#c42b8b"></path><path d="M0 263L7.5 263.8C15 264.7 30 266.3 45 265.8C60 265.3 75 262.7 90 261.7C105 260.7 120 261.3 135 262.7C150 264 165 266 180 268.7C195 271.3 210 274.7 225 274.5C240 274.3 255 270.7 270 267.8C285 265 300 263 315 263.8C330 264.7 345 268.3 360 269.7C375 271 390 270 405 270.5C420 271 435 273 450 272.7C465 272.3 480 269.7 495 267.2C510 264.7 525 262.3 540 263C555 263.7 570 267.3 585 269C600 270.7 615 270.3 630 270C645 269.7 660 269.3 675 267.8C690 266.3 705 263.7 720 264.2C735 264.7 750 268.3 765 268.8C780 269.3 795 266.7 810 265.8C825 265 840 266 855 267.3C870 268.7 885 270.3 892.5 271.2L900 272L900 301L892.5 301C885 301 870 301 855 301C840 301 825 301 810 301C795 301 780 301 765 301C750 301 735 301 720 301C705 301 690 301 675 301C660 301 645 301 630 301C615 301 600 301 585 301C570 301 555 301 540 301C525 301 510 301 495 301C480 301 465 301 450 301C435 301 420 301 405 301C390 301 375 301 360 301C345 301 330 301 315 301C300 301 285 301 270 301C255 301 240 301 225 301C210 301 195 301 180 301C165 301 150 301 135 301C120 301 105 301 90 301C75 301 60 301 45 301C30 301 15 301 7.5 301L0 301Z" fill="#be349e"></path><path d="M0 272L7.5 272C15 272 30 272 45 273C60 274 75 276 90 276.5C105 277 120 276 135 274C150 272 165 269 180 268.7C195 268.3 210 270.7 225 271.5C240 272.3 255 271.7 270 271.3C285 271 300 271 315 272C330 273 345 275 360 276.3C375 277.7 390 278.3 405 279.2C420 280 435 281 450 281C465 281 480 280 495 279.3C510 278.7 525 278.3 540 278.8C555 279.3 570 280.7 585 281.3C600 282 615 282 630 280.3C645 278.7 660 275.3 675 275.3C690 275.3 705 278.7 720 278.8C735 279 750 276 765 273.3C780 270.7 795 268.3 810 268.7C825 269 840 272 855 273.8C870 275.7 885 276.3 892.5 276.7L900 277L900 301L892.5 301C885 301 870 301 855 301C840 301 825 301 810 301C795 301 780 301 765 301C750 301 735 301 720 301C705 301 690 301 675 301C660 301 645 301 630 301C615 301 600 301 585 301C570 301 555 301 540 301C525 301 510 301 495 301C480 301 465 301 450 301C435 301 420 301 405 301C390 301 375 301 360 301C345 301 330 301 315 301C300 301 285 301 270 301C255 301 240 301 225 301C210 301 195 301 180 301C165 301 150 301 135 301C120 301 105 301 90 301C75 301 60 301 45 301C30 301 15 301 7.5 301L0 301Z" fill="#b53eb0"></path><path d="M0 284L7.5 282.3C15 280.7 30 277.3 45 276.2C60 275 75 276 90 277.5C105 279 120 281 135 282.5C150 284 165 285 180 285.3C195 285.7 210 285.3 225 285C240 284.7 255 284.3 270 283.2C285 282 300 280 315 279.7C330 279.3 345 280.7 360 280.8C375 281 390 280 405 278.3C420 276.7 435 274.3 450 274.7C465 275 480 278 495 278.7C510 279.3 525 277.7 540 276.7C555 275.7 570 275.3 585 276.5C600 277.7 615 280.3 630 280.2C645 280 660 277 675 277.3C690 277.7 705 281.3 720 282.3C735 283.3 750 281.7 765 281.8C780 282 795 284 810 284C825 284 840 282 855 280.7C870 279.3 885 278.7 892.5 278.3L900 278L900 301L892.5 301C885 301 870 301 855 301C840 301 825 301 810 301C795 301 780 301 765 301C750 301 735 301 720 301C705 301 690 301 675 301C660 301 645 301 630 301C615 301 600 301 585 301C570 301 555 301 540 301C525 301 510 301 495 301C480 301 465 301 450 301C435 301 420 301 405 301C390 301 375 301 360 301C345 301 330 301 315 301C300 301 285 301 270 301C255 301 240 301 225 301C210 301 195 301 180 301C165 301 150 301 135 301C120 301 105 301 90 301C75 301 60 301 45 301C30 301 15 301 7.5 301L0 301Z" fill="#a849c2"></path><path d="M0 278L7.5 280C15 282 30 286 45 287.5C60 289 75 288 90 285.8C105 283.7 120 280.3 135 280.2C150 280 165 283 180 284.5C195 286 210 286 225 285.3C240 284.7 255 283.3 270 282.8C285 282.3 300 282.7 315 283.7C330 284.7 345 286.3 360 286.8C375 287.3 390 286.7 405 286C420 285.3 435 284.7 450 283.3C465 282 480 280 495 279.7C510 279.3 525 280.7 540 282.2C555 283.7 570 285.3 585 285.5C600 285.7 615 284.3 630 283.7C645 283 660 283 675 282C690 281 705 279 720 278.2C735 277.3 750 277.7 765 278.7C780 279.7 795 281.3 810 282.8C825 284.3 840 285.7 855 284.8C870 284 885 281 892.5 279.5L900 278L900 301L892.5 301C885 301 870 301 855 301C840 301 825 301 810 301C795 301 780 301 765 301C750 301 735 301 720 301C705 301 690 301 675 301C660 301 645 301 630 301C615 301 600 301 585 301C570 301 555 301 540 301C525 301 510 301 495 301C480 301 465 301 450 301C435 301 420 301 405 301C390 301 375 301 360 301C345 301 330 301 315 301C300 301 285 301 270 301C255 301 240 301 225 301C210 301 195 301 180 301C165 301 150 301 135 301C120 301 105 301 90 301C75 301 60 301 45 301C30 301 15 301 7.5 301L0 301Z" fill="#9555d4"></path><path d="M0 290L7.5 290.5C15 291 30 292 45 291.2C60 290.3 75 287.7 90 286.7C105 285.7 120 286.3 135 286C150 285.7 165 284.3 180 285C195 285.7 210 288.3 225 288.8C240 289.3 255 287.7 270 287C285 286.3 300 286.7 315 286.3C330 286 345 285 360 285.2C375 285.3 390 286.7 405 286.5C420 286.3 435 284.7 450 284.3C465 284 480 285 495 285C510 285 525 284 540 285.2C555 286.3 570 289.7 585 291.3C600 293 615 293 630 292.8C645 292.7 660 292.3 675 292C690 291.7 705 291.3 720 290.2C735 289 750 287 765 287.2C780 287.3 795 289.7 810 289.5C825 289.3 840 286.7 855 286.3C870 286 885 288 892.5 289L900 290L900 301L892.5 301C885 301 870 301 855 301C840 301 825 301 810 301C795 301 780 301 765 301C750 301 735 301 720 301C705 301 690 301 675 301C660 301 645 301 630 301C615 301 600 301 585 301C570 301 555 301 540 301C525 301 510 301 495 301C480 301 465 301 450 301C435 301 420 301 405 301C390 301 375 301 360 301C345 301 330 301 315 301C300 301 285 301 270 301C255 301 240 301 225 301C210 301 195 301 180 301C165 301 150 301 135 301C120 301 105 301 90 301C75 301 60 301 45 301C30 301 15 301 7.5 301L0 301Z" fill="#7c60e4"></path><path d="M0 297L7.5 297C15 297 30 297 45 297C60 297 75 297 90 296.7C105 296.3 120 295.7 135 295C150 294.3 165 293.7 180 293.8C195 294 210 295 225 294.2C240 293.3 255 290.7 270 290.5C285 290.3 300 292.7 315 293.3C330 294 345 293 360 292C375 291 390 290 405 289.7C420 289.3 435 289.7 450 290C465 290.3 480 290.7 495 290.3C510 290 525 289 540 288.7C555 288.3 570 288.7 585 288.8C600 289 615 289 630 289.5C645 290 660 291 675 292.3C690 293.7 705 295.3 720 295.3C735 295.3 750 293.7 765 293C780 292.3 795 292.7 810 292.8C825 293 840 293 855 292.5C870 292 885 291 892.5 290.5L900 290L900 301L892.5 301C885 301 870 301 855 301C840 301 825 301 810 301C795 301 780 301 765 301C750 301 735 301 720 301C705 301 690 301 675 301C660 301 645 301 630 301C615 301 600 301 585 301C570 301 555 301 540 301C525 301 510 301 495 301C480 301 465 301 450 301C435 301 420 301 405 301C390 301 375 301 360 301C345 301 330 301 315 301C300 301 285 301 270 301C255 301 240 301 225 301C210 301 195 301 180 301C165 301 150 301 135 301C120 301 105 301 90 301C75 301 60 301 45 301C30 301 15 301 7.5 301L0 301Z" fill="#566bf2"></path></svg>