<svg id="visual" viewBox="0 0 960 340" width="960" height="340" xmlns="http://www.w3.org/2000/svg" xmlns:xlink="http://www.w3.org/1999/xlink" version="1.1"><rect x="0" y="0" width="960" height="340" fill="#001220"></rect><path d="M0 99L22.8 95.8C45.7 92.7 91.3 86.3 137 88.3C182.7 90.3 228.3 100.7 274 101.3C319.7 102 365.3 93 411.2 91C457 89 503 94 548.8 97C594.7 100 640.3 101 686 96.5C731.7 92 777.3 82 823 81.3C868.7 80.7 914.3 89.3 937.2 93.7L960 98L960 0L937.2 0C914.3 0 868.7 0 823 0C777.3 0 731.7 0 686 0C640.3 0 594.7 0 548.8 0C503 0 457 0 411.2 0C365.3 0 319.7 0 274 0C228.3 0 182.7 0 137 0C91.3 0 45.7 0 22.8 0L0 0Z" fill="#c62368"></path><path d="M0 86L22.8 81.7C45.7 77.3 91.3 68.7 137 64.3C182.7 60 228.3 60 274 64C319.7 68 365.3 76 411.2 75C457 74 503 64 548.8 62.7C594.7 61.3 640.3 68.7 686 72C731.7 75.3 777.3 74.7 823 76.7C868.7 78.7 914.3 83.3 937.2 85.7L960 88L960 0L937.2 0C914.3 0 868.7 0 823 0C777.3 0 731.7 0 686 0C640.3 0 594.7 0 548.8 0C503 0 457 0 411.2 0C365.3 0 319.7 0 274 0C228.3 0 182.7 0 137 0C91.3 0 45.7 0 22.8 0L0 0Z" fill="#8a2b72"></path><path d="M0 60L22.8 57.5C45.7 55 91.3 50 137 46.5C182.7 43 228.3 41 274 44.2C319.7 47.3 365.3 55.7 411.2 56.8C457 58 503 52 548.8 49C594.7 46 640.3 46 686 49.5C731.7 53 777.3 60 823 60.2C868.7 60.3 914.3 53.7 937.2 50.3L960 47L960 0L937.2 0C914.3 0 868.7 0 823 0C777.3 0 731.7 0 686 0C640.3 0 594.7 0 548.8 0C503 0 457 0 411.2 0C365.3 0 319.7 0 274 0C228.3 0 182.7 0 137 0C91.3 0 45.7 0 22.8 0L0 0Z" fill="#4b2d66"></path><path d="M0 42L22.8 40.5C45.7 39 91.3 36 137 36.2C182.7 36.3 228.3 39.7 274 39.5C319.7 39.3 365.3 35.7 411.2 36.7C457 37.7 503 43.3 548.8 46.3C594.7 49.3 640.3 49.7 686 46.2C731.7 42.7 777.3 35.3 823 33.3C868.7 31.3 914.3 34.7 937.2 36.3L960 38L960 0L937.2 0C914.3 0 868.7 0 823 0C777.3 0 731.7 0 686 0C640.3 0 594.7 0 548.8 0C503 0 457 0 411.2 0C365.3 0 319.7 0 274 0C228.3 0 182.7 0 137 0C91.3 0 45.7 0 22.8 0L0 0Z" fill="#172447"></path><path d="M0 18L22.8 20.5C45.7 23 91.3 28 137 27.7C182.7 27.3 228.3 21.7 274 20.2C319.7 18.7 365.3 21.3 411.2 22C457 22.7 503 21.3 548.8 22.5C594.7 23.7 640.3 27.3 686 26.8C731.7 26.3 777.3 21.7 823 21.3C868.7 21 914.3 25 937.2 27L960 29L960 0L937.2 0C914.3 0 868.7 0 823 0C777.3 0 731.7 0 686 0C640.3 0 594.7 0 548.8 0C503 0 457 0 411.2 0C365.3 0 319.7 0 274 0C228.3 0 182.7 0 137 0C91.3 0 45.7 0 22.8 0L0 0Z" fill="#001220"></path></svg>