<svg id="visual" viewBox="0 0 900 600" width="900" height="600" xmlns="http://www.w3.org/2000/svg" xmlns:xlink="http://www.w3.org/1999/xlink" version="1.1"><path d="M0 115L15 115C30 115 60 115 90 114C120 113 150 111 180 113C210 115 240 121 270 122C300 123 330 119 360 119C390 119 420 123 450 123C480 123 510 119 540 118C570 117 600 119 630 118C660 117 690 113 720 112C750 111 780 113 810 114C840 115 870 115 885 115L900 115L900 0L885 0C870 0 840 0 810 0C780 0 750 0 720 0C690 0 660 0 630 0C600 0 570 0 540 0C510 0 480 0 450 0C420 0 390 0 360 0C330 0 300 0 270 0C240 0 210 0 180 0C150 0 120 0 90 0C60 0 30 0 15 0L0 0Z" fill="#2e0245"></path><path d="M0 247L15 247C30 247 60 247 90 246C120 245 150 243 180 244C210 245 240 249 270 249C300 249 330 245 360 244C390 243 420 245 450 244C480 243 510 239 540 240C570 241 600 247 630 248C660 249 690 245 720 245C750 245 780 249 810 250C840 251 870 249 885 248L900 247L900 113L885 113C870 113 840 113 810 112C780 111 750 109 720 110C690 111 660 115 630 116C600 117 570 115 540 116C510 117 480 121 450 121C420 121 390 117 360 117C330 117 300 121 270 120C240 119 210 113 180 111C150 109 120 111 90 112C60 113 30 113 15 113L0 113Z" fill="#29093a"></path><path d="M0 277L15 277C30 277 60 277 90 276C120 275 150 273 180 274C210 275 240 279 270 279C300 279 330 275 360 274C390 273 420 275 450 274C480 273 510 269 540 270C570 271 600 277 630 278C660 279 690 275 720 275C750 275 780 279 810 280C840 281 870 279 885 278L900 277L900 245L885 246C870 247 840 249 810 248C780 247 750 243 720 243C690 243 660 247 630 246C600 245 570 239 540 238C510 237 480 241 450 242C420 243 390 241 360 242C330 243 300 247 270 247C240 247 210 243 180 242C150 241 120 243 90 244C60 245 30 245 15 245L0 245Z" fill="#230e2f"></path><path d="M0 301L15 301C30 301 60 301 90 300C120 299 150 297 180 298C210 299 240 303 270 303C300 303 330 299 360 298C390 297 420 299 450 298C480 297 510 293 540 294C570 295 600 301 630 302C660 303 690 299 720 299C750 299 780 303 810 304C840 305 870 303 885 302L900 301L900 275L885 276C870 277 840 279 810 278C780 277 750 273 720 273C690 273 660 277 630 276C600 275 570 269 540 268C510 267 480 271 450 272C420 273 390 271 360 272C330 273 300 277 270 277C240 277 210 273 180 272C150 271 120 273 90 274C60 275 30 275 15 275L0 275Z" fill="#1d1124"></path><path d="M0 349L15 349C30 349 60 349 90 347C120 345 150 341 180 341C210 341 240 345 270 346C300 347 330 345 360 345C390 345 420 347 450 345C480 343 510 337 540 337C570 337 600 343 630 344C660 345 690 341 720 342C750 343 780 349 810 351C840 353 870 351 885 350L900 349L900 299L885 300C870 301 840 303 810 302C780 301 750 297 720 297C690 297 660 301 630 300C600 299 570 293 540 292C510 291 480 295 450 296C420 297 390 295 360 296C330 297 300 301 270 301C240 301 210 297 180 296C150 295 120 297 90 298C60 299 30 299 15 299L0 299Z" fill="#171219"></path><path d="M0 409L15 409C30 409 60 409 90 407C120 405 150 401 180 401C210 401 240 405 270 406C300 407 330 405 360 404C390 403 420 403 450 401C480 399 510 395 540 395C570 395 600 399 630 400C660 401 690 399 720 400C750 401 780 405 810 406C840 407 870 405 885 404L900 403L900 347L885 348C870 349 840 351 810 349C780 347 750 341 720 340C690 339 660 343 630 342C600 341 570 335 540 335C510 335 480 341 450 343C420 345 390 343 360 343C330 343 300 345 270 344C240 343 210 339 180 339C150 339 120 343 90 345C60 347 30 347 15 347L0 347Z" fill="#171219"></path><path d="M0 475L15 475C30 475 60 475 90 475C120 475 150 475 180 475C210 475 240 475 270 474C300 473 330 471 360 471C390 471 420 473 450 473C480 473 510 471 540 471C570 471 600 473 630 473C660 473 690 471 720 471C750 471 780 473 810 473C840 473 870 471 885 470L900 469L900 401L885 402C870 403 840 405 810 404C780 403 750 399 720 398C690 397 660 399 630 398C600 397 570 393 540 393C510 393 480 397 450 399C420 401 390 401 360 402C330 403 300 405 270 404C240 403 210 399 180 399C150 399 120 403 90 405C60 407 30 407 15 407L0 407Z" fill="#171219"></path><path d="M0 511L15 511C30 511 60 511 90 511C120 511 150 511 180 511C210 511 240 511 270 511C300 511 330 511 360 511C390 511 420 511 450 511C480 511 510 511 540 511C570 511 600 511 630 511C660 511 690 511 720 511C750 511 780 511 810 511C840 511 870 511 885 511L900 511L900 467L885 468C870 469 840 471 810 471C780 471 750 469 720 469C690 469 660 471 630 471C600 471 570 469 540 469C510 469 480 471 450 471C420 471 390 469 360 469C330 469 300 471 270 472C240 473 210 473 180 473C150 473 120 473 90 473C60 473 30 473 15 473L0 473Z" fill="#1d1124"></path><path d="M0 547L15 547C30 547 60 547 90 547C120 547 150 547 180 547C210 547 240 547 270 547C300 547 330 547 360 547C390 547 420 547 450 547C480 547 510 547 540 547C570 547 600 547 630 547C660 547 690 547 720 547C750 547 780 547 810 547C840 547 870 547 885 547L900 547L900 509L885 509C870 509 840 509 810 509C780 509 750 509 720 509C690 509 660 509 630 509C600 509 570 509 540 509C510 509 480 509 450 509C420 509 390 509 360 509C330 509 300 509 270 509C240 509 210 509 180 509C150 509 120 509 90 509C60 509 30 509 15 509L0 509Z" fill="#230e2f"></path><path d="M0 577L15 577C30 577 60 577 90 577C120 577 150 577 180 577C210 577 240 577 270 577C300 577 330 577 360 577C390 577 420 577 450 577C480 577 510 577 540 577C570 577 600 577 630 577C660 577 690 577 720 577C750 577 780 577 810 577C840 577 870 577 885 577L900 577L900 545L885 545C870 545 840 545 810 545C780 545 750 545 720 545C690 545 660 545 630 545C600 545 570 545 540 545C510 545 480 545 450 545C420 545 390 545 360 545C330 545 300 545 270 545C240 545 210 545 180 545C150 545 120 545 90 545C60 545 30 545 15 545L0 545Z" fill="#29093a"></path><path d="M0 601L15 601C30 601 60 601 90 601C120 601 150 601 180 601C210 601 240 601 270 601C300 601 330 601 360 601C390 601 420 601 450 601C480 601 510 601 540 601C570 601 600 601 630 601C660 601 690 601 720 601C750 601 780 601 810 601C840 601 870 601 885 601L900 601L900 575L885 575C870 575 840 575 810 575C780 575 750 575 720 575C690 575 660 575 630 575C600 575 570 575 540 575C510 575 480 575 450 575C420 575 390 575 360 575C330 575 300 575 270 575C240 575 210 575 180 575C150 575 120 575 90 575C60 575 30 575 15 575L0 575Z" fill="#2e0245"></path></svg>