<svg id="visual" viewBox="0 0 900 300" width="900" height="300" xmlns="http://www.w3.org/2000/svg" xmlns:xlink="http://www.w3.org/1999/xlink" version="1.1"><rect x="0" y="0" width="900" height="300" fill="#001220"></rect><path d="M0 47L21.5 46.3C43 45.7 86 44.3 128.8 42.8C171.7 41.3 214.3 39.7 257.2 38.8C300 38 343 38 385.8 36.2C428.7 34.3 471.3 30.7 514.2 30C557 29.3 600 31.7 642.8 33.2C685.7 34.7 728.3 35.3 771.2 36.7C814 38 857 40 878.5 41L900 42L900 0L878.5 0C857 0 814 0 771.2 0C728.3 0 685.7 0 642.8 0C600 0 557 0 514.2 0C471.3 0 428.7 0 385.8 0C343 0 300 0 257.2 0C214.3 0 171.7 0 128.8 0C86 0 43 0 21.5 0L0 0Z" fill="#c62368"></path><path d="M0 31L21.5 28.5C43 26 86 21 128.8 20.3C171.7 19.7 214.3 23.3 257.2 25.3C300 27.3 343 27.7 385.8 27.7C428.7 27.7 471.3 27.3 514.2 26.7C557 26 600 25 642.8 24.8C685.7 24.7 728.3 25.3 771.2 25C814 24.7 857 23.3 878.5 22.7L900 22L900 0L878.5 0C857 0 814 0 771.2 0C728.3 0 685.7 0 642.8 0C600 0 557 0 514.2 0C471.3 0 428.7 0 385.8 0C343 0 300 0 257.2 0C214.3 0 171.7 0 128.8 0C86 0 43 0 21.5 0L0 0Z" fill="#b53eb0"></path><path d="M0 12L21.5 11.8C43 11.7 86 11.3 128.8 11.5C171.7 11.7 214.3 12.3 257.2 12.8C300 13.3 343 13.7 385.8 13.8C428.7 14 471.3 14 514.2 14C557 14 600 14 642.8 14.8C685.7 15.7 728.3 17.3 771.2 18.2C814 19 857 19 878.5 19L900 19L900 0L878.5 0C857 0 814 0 771.2 0C728.3 0 685.7 0 642.8 0C600 0 557 0 514.2 0C471.3 0 428.7 0 385.8 0C343 0 300 0 257.2 0C214.3 0 171.7 0 128.8 0C86 0 43 0 21.5 0L0 0Z" fill="#566bf2"></path></svg>