<svg id="visual" viewBox="0 0 900 300" width="900" height="300" xmlns="http://www.w3.org/2000/svg" xmlns:xlink="http://www.w3.org/1999/xlink" version="1.1"><rect x="0" y="0" width="900" height="300" fill="#001220"></rect><path d="M0 29L21.5 32.3C43 35.7 86 42.3 128.8 42.8C171.7 43.3 214.3 37.7 257.2 35.8C300 34 343 36 385.8 38.2C428.7 40.3 471.3 42.7 514.2 41.5C557 40.3 600 35.7 642.8 34.5C685.7 33.3 728.3 35.7 771.2 36.3C814 37 857 36 878.5 35.5L900 35L900 0L878.5 0C857 0 814 0 771.2 0C728.3 0 685.7 0 642.8 0C600 0 557 0 514.2 0C471.3 0 428.7 0 385.8 0C343 0 300 0 257.2 0C214.3 0 171.7 0 128.8 0C86 0 43 0 21.5 0L0 0Z" fill="#354654"></path><path d="M0 34L21.5 33.8C43 33.7 86 33.3 128.8 32.5C171.7 31.7 214.3 30.3 257.2 31.3C300 32.3 343 35.7 385.8 34.7C428.7 33.7 471.3 28.3 514.2 26.8C557 25.3 600 27.7 642.8 28.7C685.7 29.7 728.3 29.3 771.2 29C814 28.7 857 28.3 878.5 28.2L900 28L900 0L878.5 0C857 0 814 0 771.2 0C728.3 0 685.7 0 642.8 0C600 0 557 0 514.2 0C471.3 0 428.7 0 385.8 0C343 0 300 0 257.2 0C214.3 0 171.7 0 128.8 0C86 0 43 0 21.5 0L0 0Z" fill="#23547c"></path><path d="M0 21L21.5 22C43 23 86 25 128.8 24.8C171.7 24.7 214.3 22.3 257.2 23C300 23.7 343 27.3 385.8 28.5C428.7 29.7 471.3 28.3 514.2 27.5C557 26.7 600 26.3 642.8 25.8C685.7 25.3 728.3 24.7 771.2 23.8C814 23 857 22 878.5 21.5L900 21L900 0L878.5 0C857 0 814 0 771.2 0C728.3 0 685.7 0 642.8 0C600 0 557 0 514.2 0C471.3 0 428.7 0 385.8 0C343 0 300 0 257.2 0C214.3 0 171.7 0 128.8 0C86 0 43 0 21.5 0L0 0Z" fill="#0660a6"></path><path d="M0 18L21.5 17.8C43 17.7 86 17.3 128.8 16.5C171.7 15.7 214.3 14.3 257.2 14.3C300 14.3 343 15.7 385.8 17.2C428.7 18.7 471.3 20.3 514.2 20C557 19.7 600 17.3 642.8 16C685.7 14.7 728.3 14.3 771.2 13.8C814 13.3 857 12.7 878.5 12.3L900 12L900 0L878.5 0C857 0 814 0 771.2 0C728.3 0 685.7 0 642.8 0C600 0 557 0 514.2 0C471.3 0 428.7 0 385.8 0C343 0 300 0 257.2 0C214.3 0 171.7 0 128.8 0C86 0 43 0 21.5 0L0 0Z" fill="#1f68ce"></path><path d="M0 7L21.5 7.3C43 7.7 86 8.3 128.8 9.3C171.7 10.3 214.3 11.7 257.2 12.3C300 13 343 13 385.8 12.5C428.7 12 471.3 11 514.2 11.2C557 11.3 600 12.7 642.8 13.2C685.7 13.7 728.3 13.3 771.2 12.7C814 12 857 11 878.5 10.5L900 10L900 0L878.5 0C857 0 814 0 771.2 0C728.3 0 685.7 0 642.8 0C600 0 557 0 514.2 0C471.3 0 428.7 0 385.8 0C343 0 300 0 257.2 0C214.3 0 171.7 0 128.8 0C86 0 43 0 21.5 0L0 0Z" fill="#566bf2"></path></svg>