<svg id="visual" viewBox="0 0 960 300" width="960" height="300" xmlns="http://www.w3.org/2000/svg" xmlns:xlink="http://www.w3.org/1999/xlink" version="1.1"><path d="M0 82L53 82L53 28L107 28L107 73L160 73L160 43L213 43L213 31L267 31L267 40L320 40L320 46L373 46L373 88L427 88L427 67L480 67L480 43L533 43L533 67L587 67L587 31L640 31L640 76L693 76L693 34L747 34L747 37L800 37L800 31L853 31L853 88L907 88L907 64L960 64L960 43L960 0L960 0L907 0L907 0L853 0L853 0L800 0L800 0L747 0L747 0L693 0L693 0L640 0L640 0L587 0L587 0L533 0L533 0L480 0L480 0L427 0L427 0L373 0L373 0L320 0L320 0L267 0L267 0L213 0L213 0L160 0L160 0L107 0L107 0L53 0L53 0L0 0Z" fill="#223296"></path><path d="M0 100L53 100L53 73L107 73L107 94L160 94L160 91L213 91L213 76L267 76L267 88L320 88L320 88L373 88L373 112L427 112L427 115L480 115L480 61L533 61L533 109L587 109L587 73L640 73L640 121L693 121L693 61L747 61L747 70L800 70L800 70L853 70L853 106L907 106L907 100L960 100L960 85L960 41L960 62L907 62L907 86L853 86L853 29L800 29L800 35L747 35L747 32L693 32L693 74L640 74L640 29L587 29L587 65L533 65L533 41L480 41L480 65L427 65L427 86L373 86L373 44L320 44L320 38L267 38L267 29L213 29L213 41L160 41L160 71L107 71L107 26L53 26L53 80L0 80Z" fill="#652b92"></path><path d="M0 202L53 202L53 208L107 208L107 220L160 220L160 199L213 199L213 151L267 151L267 190L320 190L320 184L373 184L373 196L427 196L427 160L480 160L480 151L533 151L533 193L587 193L587 160L640 160L640 196L693 196L693 148L747 148L747 214L800 214L800 169L853 169L853 169L907 169L907 193L960 193L960 193L960 83L960 98L907 98L907 104L853 104L853 68L800 68L800 68L747 68L747 59L693 59L693 119L640 119L640 71L587 71L587 107L533 107L533 59L480 59L480 113L427 113L427 110L373 110L373 86L320 86L320 86L267 86L267 74L213 74L213 89L160 89L160 92L107 92L107 71L53 71L53 98L0 98Z" fill="#8f2188"></path><path d="M0 247L53 247L53 247L107 247L107 256L160 256L160 247L213 247L213 205L267 205L267 211L320 211L320 226L373 226L373 217L427 217L427 217L480 217L480 199L533 199L533 247L587 247L587 208L640 208L640 235L693 235L693 196L747 196L747 241L800 241L800 196L853 196L853 208L907 208L907 238L960 238L960 247L960 191L960 191L907 191L907 167L853 167L853 167L800 167L800 212L747 212L747 146L693 146L693 194L640 194L640 158L587 158L587 191L533 191L533 149L480 149L480 158L427 158L427 194L373 194L373 182L320 182L320 188L267 188L267 149L213 149L213 197L160 197L160 218L107 218L107 206L53 206L53 200L0 200Z" fill="#af1b79"></path><path d="M0 301L53 301L53 301L107 301L107 301L160 301L160 301L213 301L213 301L267 301L267 301L320 301L320 301L373 301L373 301L427 301L427 301L480 301L480 301L533 301L533 301L587 301L587 301L640 301L640 301L693 301L693 301L747 301L747 301L800 301L800 301L853 301L853 301L907 301L907 301L960 301L960 301L960 245L960 236L907 236L907 206L853 206L853 194L800 194L800 239L747 239L747 194L693 194L693 233L640 233L640 206L587 206L587 245L533 245L533 197L480 197L480 215L427 215L427 215L373 215L373 224L320 224L320 209L267 209L267 203L213 203L213 245L160 245L160 254L107 254L107 245L53 245L53 245L0 245Z" fill="#c62368"></path></svg>