<svg id="visual" viewBox="0 0 960 300" width="960" height="300" xmlns="http://www.w3.org/2000/svg" xmlns:xlink="http://www.w3.org/1999/xlink" version="1.1"><rect x="0" y="0" width="960" height="300" fill="#001220"></rect><path d="M0 238L22.8 236.8C45.7 235.7 91.3 233.3 137 231.5C182.7 229.7 228.3 228.3 274 229C319.7 229.7 365.3 232.3 411.2 233C457 233.7 503 232.3 548.8 233.2C594.7 234 640.3 237 686 238.5C731.7 240 777.3 240 823 238C868.7 236 914.3 232 937.2 230L960 228L960 301L937.2 301C914.3 301 868.7 301 823 301C777.3 301 731.7 301 686 301C640.3 301 594.7 301 548.8 301C503 301 457 301 411.2 301C365.3 301 319.7 301 274 301C228.3 301 182.7 301 137 301C91.3 301 45.7 301 22.8 301L0 301Z" fill="#c62368"></path><path d="M0 250L22.8 251.5C45.7 253 91.3 256 137 254.3C182.7 252.7 228.3 246.3 274 243.8C319.7 241.3 365.3 242.7 411.2 243.2C457 243.7 503 243.3 548.8 244.2C594.7 245 640.3 247 686 248C731.7 249 777.3 249 823 247.2C868.7 245.3 914.3 241.7 937.2 239.8L960 238L960 301L937.2 301C914.3 301 868.7 301 823 301C777.3 301 731.7 301 686 301C640.3 301 594.7 301 548.8 301C503 301 457 301 411.2 301C365.3 301 319.7 301 274 301C228.3 301 182.7 301 137 301C91.3 301 45.7 301 22.8 301L0 301Z" fill="#af1b79"></path><path d="M0 265L22.8 264C45.7 263 91.3 261 137 260.2C182.7 259.3 228.3 259.7 274 261.7C319.7 263.7 365.3 267.3 411.2 267.7C457 268 503 265 548.8 265C594.7 265 640.3 268 686 266.8C731.7 265.7 777.3 260.3 823 259.8C868.7 259.3 914.3 263.7 937.2 265.8L960 268L960 301L937.2 301C914.3 301 868.7 301 823 301C777.3 301 731.7 301 686 301C640.3 301 594.7 301 548.8 301C503 301 457 301 411.2 301C365.3 301 319.7 301 274 301C228.3 301 182.7 301 137 301C91.3 301 45.7 301 22.8 301L0 301Z" fill="#8f2188"></path><path d="M0 265L22.8 265C45.7 265 91.3 265 137 265.8C182.7 266.7 228.3 268.3 274 270.7C319.7 273 365.3 276 411.2 277.7C457 279.3 503 279.7 548.8 277.8C594.7 276 640.3 272 686 269.5C731.7 267 777.3 266 823 267C868.7 268 914.3 271 937.2 272.5L960 274L960 301L937.2 301C914.3 301 868.7 301 823 301C777.3 301 731.7 301 686 301C640.3 301 594.7 301 548.8 301C503 301 457 301 411.2 301C365.3 301 319.7 301 274 301C228.3 301 182.7 301 137 301C91.3 301 45.7 301 22.8 301L0 301Z" fill="#652b92"></path><path d="M0 286L22.8 284.8C45.7 283.7 91.3 281.3 137 279.8C182.7 278.3 228.3 277.7 274 277.8C319.7 278 365.3 279 411.2 280.3C457 281.7 503 283.3 548.8 284.7C594.7 286 640.3 287 686 286.2C731.7 285.3 777.3 282.7 823 281.3C868.7 280 914.3 280 937.2 280L960 280L960 301L937.2 301C914.3 301 868.7 301 823 301C777.3 301 731.7 301 686 301C640.3 301 594.7 301 548.8 301C503 301 457 301 411.2 301C365.3 301 319.7 301 274 301C228.3 301 182.7 301 137 301C91.3 301 45.7 301 22.8 301L0 301Z" fill="#223296"></path></svg>