<svg id="visual" viewBox="0 0 900 300" width="900" height="300" xmlns="http://www.w3.org/2000/svg" xmlns:xlink="http://www.w3.org/1999/xlink" version="1.1"><rect x="0" y="0" width="900" height="300" fill="#001220"></rect><path d="M0 214L7.5 211.2C15 208.3 30 202.7 45 200.8C60 199 75 201 90 201.3C105 201.7 120 200.3 135 205.5C150 210.7 165 222.3 180 224.3C195 226.3 210 218.7 225 210.7C240 202.7 255 194.3 270 196.2C285 198 300 210 315 217.8C330 225.7 345 229.3 360 224.7C375 220 390 207 405 206.7C420 206.3 435 218.7 450 224.8C465 231 480 231 495 224.8C510 218.7 525 206.3 540 203.7C555 201 570 208 585 213.3C600 218.7 615 222.3 630 224.8C645 227.3 660 228.7 675 222C690 215.3 705 200.7 720 200.3C735 200 750 214 765 216.5C780 219 795 210 810 205.7C825 201.3 840 201.7 855 203.5C870 205.3 885 208.7 892.5 210.3L900 212L900 301L892.5 301C885 301 870 301 855 301C840 301 825 301 810 301C795 301 780 301 765 301C750 301 735 301 720 301C705 301 690 301 675 301C660 301 645 301 630 301C615 301 600 301 585 301C570 301 555 301 540 301C525 301 510 301 495 301C480 301 465 301 450 301C435 301 420 301 405 301C390 301 375 301 360 301C345 301 330 301 315 301C300 301 285 301 270 301C255 301 240 301 225 301C210 301 195 301 180 301C165 301 150 301 135 301C120 301 105 301 90 301C75 301 60 301 45 301C30 301 15 301 7.5 301L0 301Z" fill="#c62368"></path><path d="M0 200L7.5 203.3C15 206.7 30 213.3 45 220.3C60 227.3 75 234.7 90 233C105 231.3 120 220.7 135 214.2C150 207.7 165 205.3 180 203.7C195 202 210 201 225 203.2C240 205.3 255 210.7 270 215.2C285 219.7 300 223.3 315 222.3C330 221.3 345 215.7 360 214.2C375 212.7 390 215.3 405 213.3C420 211.3 435 204.7 450 206.2C465 207.7 480 217.3 495 218.2C510 219 525 211 540 210.3C555 209.7 570 216.3 585 219.3C600 222.3 615 221.7 630 223.2C645 224.7 660 228.3 675 227.3C690 226.3 705 220.7 720 220.7C735 220.7 750 226.3 765 230.3C780 234.3 795 236.7 810 232.7C825 228.7 840 218.3 855 212.8C870 207.3 885 206.7 892.5 206.3L900 206L900 301L892.5 301C885 301 870 301 855 301C840 301 825 301 810 301C795 301 780 301 765 301C750 301 735 301 720 301C705 301 690 301 675 301C660 301 645 301 630 301C615 301 600 301 585 301C570 301 555 301 540 301C525 301 510 301 495 301C480 301 465 301 450 301C435 301 420 301 405 301C390 301 375 301 360 301C345 301 330 301 315 301C300 301 285 301 270 301C255 301 240 301 225 301C210 301 195 301 180 301C165 301 150 301 135 301C120 301 105 301 90 301C75 301 60 301 45 301C30 301 15 301 7.5 301L0 301Z" fill="#c62579"></path><path d="M0 217L7.5 218.3C15 219.7 30 222.3 45 227.5C60 232.7 75 240.3 90 238C105 235.7 120 223.3 135 220.7C150 218 165 225 180 230.2C195 235.3 210 238.7 225 240.2C240 241.7 255 241.3 270 239.5C285 237.7 300 234.3 315 231.2C330 228 345 225 360 225C375 225 390 228 405 229.7C420 231.3 435 231.7 450 230.7C465 229.7 480 227.3 495 228.7C510 230 525 235 540 236C555 237 570 234 585 229.7C600 225.3 615 219.7 630 218.2C645 216.7 660 219.3 675 218.8C690 218.3 705 214.7 720 218.8C735 223 750 235 765 238.3C780 241.7 795 236.3 810 230.3C825 224.3 840 217.7 855 215.3C870 213 885 215 892.5 216L900 217L900 301L892.5 301C885 301 870 301 855 301C840 301 825 301 810 301C795 301 780 301 765 301C750 301 735 301 720 301C705 301 690 301 675 301C660 301 645 301 630 301C615 301 600 301 585 301C570 301 555 301 540 301C525 301 510 301 495 301C480 301 465 301 450 301C435 301 420 301 405 301C390 301 375 301 360 301C345 301 330 301 315 301C300 301 285 301 270 301C255 301 240 301 225 301C210 301 195 301 180 301C165 301 150 301 135 301C120 301 105 301 90 301C75 301 60 301 45 301C30 301 15 301 7.5 301L0 301Z" fill="#c42b8b"></path><path d="M0 226L7.5 228C15 230 30 234 45 233.3C60 232.7 75 227.3 90 225.2C105 223 120 224 135 226.7C150 229.3 165 233.7 180 239.2C195 244.7 210 251.3 225 250.7C240 250 255 242 270 236.2C285 230.3 300 226.7 315 228.7C330 230.7 345 238.3 360 240.8C375 243.3 390 240.7 405 241.5C420 242.3 435 246.7 450 246C465 245.3 480 239.7 495 234.7C510 229.7 525 225.3 540 227C555 228.7 570 236.3 585 239.7C600 243 615 242 630 241C645 240 660 239 675 235.8C690 232.7 705 227.3 720 228.5C735 229.7 750 237.3 765 238.7C780 240 795 235 810 233.2C825 231.3 840 232.7 855 235.3C870 238 885 242 892.5 244L900 246L900 301L892.5 301C885 301 870 301 855 301C840 301 825 301 810 301C795 301 780 301 765 301C750 301 735 301 720 301C705 301 690 301 675 301C660 301 645 301 630 301C615 301 600 301 585 301C570 301 555 301 540 301C525 301 510 301 495 301C480 301 465 301 450 301C435 301 420 301 405 301C390 301 375 301 360 301C345 301 330 301 315 301C300 301 285 301 270 301C255 301 240 301 225 301C210 301 195 301 180 301C165 301 150 301 135 301C120 301 105 301 90 301C75 301 60 301 45 301C30 301 15 301 7.5 301L0 301Z" fill="#be349e"></path><path d="M0 246L7.5 245.8C15 245.7 30 245.3 45 247.3C60 249.3 75 253.7 90 254.5C105 255.3 120 252.7 135 248.3C150 244 165 238 180 237.5C195 237 210 242 225 244C240 246 255 245 270 244.3C285 243.7 300 243.3 315 245C330 246.7 345 250.3 360 253C375 255.7 390 257.3 405 259C420 260.7 435 262.3 450 262.2C465 262 480 260 495 258.8C510 257.7 525 257.3 540 258.5C555 259.7 570 262.3 585 263.7C600 265 615 265 630 261.8C645 258.7 660 252.3 675 252.2C690 252 705 258 720 258.3C735 258.7 750 253.3 765 248C780 242.7 795 237.3 810 237.7C825 238 840 244 855 247.8C870 251.7 885 253.3 892.5 254.2L900 255L900 301L892.5 301C885 301 870 301 855 301C840 301 825 301 810 301C795 301 780 301 765 301C750 301 735 301 720 301C705 301 690 301 675 301C660 301 645 301 630 301C615 301 600 301 585 301C570 301 555 301 540 301C525 301 510 301 495 301C480 301 465 301 450 301C435 301 420 301 405 301C390 301 375 301 360 301C345 301 330 301 315 301C300 301 285 301 270 301C255 301 240 301 225 301C210 301 195 301 180 301C165 301 150 301 135 301C120 301 105 301 90 301C75 301 60 301 45 301C30 301 15 301 7.5 301L0 301Z" fill="#b53eb0"></path><path d="M0 270L7.5 266.5C15 263 30 256 45 253.5C60 251 75 253 90 256.2C105 259.3 120 263.7 135 266.7C150 269.7 165 271.3 180 271.7C195 272 210 271 225 270.3C240 269.7 255 269.3 270 267.2C285 265 300 261 315 260.3C330 259.7 345 262.3 360 262.8C375 263.3 390 261.7 405 258.2C420 254.7 435 249.3 450 249.8C465 250.3 480 256.7 495 258.2C510 259.7 525 256.3 540 254.3C555 252.3 570 251.7 585 254C600 256.3 615 261.7 630 261.3C645 261 660 255 675 255.7C690 256.3 705 263.7 720 265.7C735 267.7 750 264.3 765 264.7C780 265 795 269 810 269.2C825 269.3 840 265.7 855 262.8C870 260 885 258 892.5 257L900 256L900 301L892.5 301C885 301 870 301 855 301C840 301 825 301 810 301C795 301 780 301 765 301C750 301 735 301 720 301C705 301 690 301 675 301C660 301 645 301 630 301C615 301 600 301 585 301C570 301 555 301 540 301C525 301 510 301 495 301C480 301 465 301 450 301C435 301 420 301 405 301C390 301 375 301 360 301C345 301 330 301 315 301C300 301 285 301 270 301C255 301 240 301 225 301C210 301 195 301 180 301C165 301 150 301 135 301C120 301 105 301 90 301C75 301 60 301 45 301C30 301 15 301 7.5 301L0 301Z" fill="#a849c2"></path><path d="M0 256L7.5 260.2C15 264.3 30 272.7 45 275.7C60 278.7 75 276.3 90 272.2C105 268 120 262 135 261.8C150 261.7 165 267.3 180 270C195 272.7 210 272.3 225 271C240 269.7 255 267.3 270 266.3C285 265.3 300 265.7 315 267.5C330 269.3 345 272.7 360 273.8C375 275 390 274 405 272.7C420 271.3 435 269.7 450 266.8C465 264 480 260 495 259.3C510 258.7 525 261.3 540 264.5C555 267.7 570 271.3 585 271.7C600 272 615 269 630 267.8C645 266.7 660 267.3 675 265.5C690 263.7 705 259.3 720 257.5C735 255.7 750 256.3 765 258.5C780 260.7 795 264.3 810 267.3C825 270.3 840 272.7 855 271C870 269.3 885 263.7 892.5 260.8L900 258L900 301L892.5 301C885 301 870 301 855 301C840 301 825 301 810 301C795 301 780 301 765 301C750 301 735 301 720 301C705 301 690 301 675 301C660 301 645 301 630 301C615 301 600 301 585 301C570 301 555 301 540 301C525 301 510 301 495 301C480 301 465 301 450 301C435 301 420 301 405 301C390 301 375 301 360 301C345 301 330 301 315 301C300 301 285 301 270 301C255 301 240 301 225 301C210 301 195 301 180 301C165 301 150 301 135 301C120 301 105 301 90 301C75 301 60 301 45 301C30 301 15 301 7.5 301L0 301Z" fill="#9555d4"></path><path d="M0 281L7.5 282C15 283 30 285 45 283.3C60 281.7 75 276.3 90 274.2C105 272 120 273 135 272.3C150 271.7 165 269.3 180 270.7C195 272 210 277 225 277.8C240 278.7 255 275.3 270 274.2C285 273 300 274 315 273.5C330 273 345 271 360 271.2C375 271.3 390 273.7 405 273.5C420 273.3 435 270.7 450 270.3C465 270 480 272 495 272C510 272 525 270 540 272C555 274 570 280 585 283.3C600 286.7 615 287.3 630 287.2C645 287 660 286 675 285C690 284 705 283 720 280.8C735 278.7 750 275.3 765 275.8C780 276.3 795 280.7 810 280.3C825 280 840 275 855 274.3C870 273.7 885 277.3 892.5 279.2L900 281L900 301L892.5 301C885 301 870 301 855 301C840 301 825 301 810 301C795 301 780 301 765 301C750 301 735 301 720 301C705 301 690 301 675 301C660 301 645 301 630 301C615 301 600 301 585 301C570 301 555 301 540 301C525 301 510 301 495 301C480 301 465 301 450 301C435 301 420 301 405 301C390 301 375 301 360 301C345 301 330 301 315 301C300 301 285 301 270 301C255 301 240 301 225 301C210 301 195 301 180 301C165 301 150 301 135 301C120 301 105 301 90 301C75 301 60 301 45 301C30 301 15 301 7.5 301L0 301Z" fill="#7c60e4"></path><path d="M0 294L7.5 294.2C15 294.3 30 294.7 45 294.7C60 294.7 75 294.3 90 293.5C105 292.7 120 291.3 135 290.2C150 289 165 288 180 288.5C195 289 210 291 225 289.3C240 287.7 255 282.3 270 282C285 281.7 300 286.3 315 287.7C330 289 345 287 360 285C375 283 390 281 405 280.5C420 280 435 281 450 281.8C465 282.7 480 283.3 495 282.7C510 282 525 280 540 279.2C555 278.3 570 278.7 585 278.8C600 279 615 279 630 280C645 281 660 283 675 285.7C690 288.3 705 291.7 720 291.7C735 291.7 750 288.3 765 287C780 285.7 795 286.3 810 286.8C825 287.3 840 287.7 855 286.8C870 286 885 284 892.5 283L900 282L900 301L892.5 301C885 301 870 301 855 301C840 301 825 301 810 301C795 301 780 301 765 301C750 301 735 301 720 301C705 301 690 301 675 301C660 301 645 301 630 301C615 301 600 301 585 301C570 301 555 301 540 301C525 301 510 301 495 301C480 301 465 301 450 301C435 301 420 301 405 301C390 301 375 301 360 301C345 301 330 301 315 301C300 301 285 301 270 301C255 301 240 301 225 301C210 301 195 301 180 301C165 301 150 301 135 301C120 301 105 301 90 301C75 301 60 301 45 301C30 301 15 301 7.5 301L0 301Z" fill="#566bf2"></path></svg>