<svg id="visual" viewBox="0 0 500 900" width="500" height="900" xmlns="http://www.w3.org/2000/svg" xmlns:xlink="http://www.w3.org/1999/xlink" version="1.1"><rect x="0" y="0" width="500" height="900" fill="#001220"></rect><path d="M0 45L11.8 49.7C23.7 54.3 47.3 63.7 71.2 64.2C95 64.7 119 56.3 142.8 53.8C166.7 51.3 190.3 54.7 214.2 58C238 61.3 262 64.7 285.8 62.8C309.7 61 333.3 54 357.2 52.2C381 50.3 405 53.7 428.8 54.5C452.7 55.3 476.3 53.7 488.2 52.8L500 52L500 0L488.2 0C476.3 0 452.7 0 428.8 0C405 0 381 0 357.2 0C333.3 0 309.7 0 285.8 0C262 0 238 0 214.2 0C190.3 0 166.7 0 142.8 0C119 0 95 0 71.2 0C47.3 0 23.7 0 11.8 0L0 0Z" fill="#354654"></path><path d="M0 52L11.8 51.7C23.7 51.3 47.3 50.7 71.2 49.3C95 48 119 46 142.8 47.5C166.7 49 190.3 54 214.2 52.7C238 51.3 262 43.7 285.8 41.5C309.7 39.3 333.3 42.7 357.2 44C381 45.3 405 44.7 428.8 44C452.7 43.3 476.3 42.7 488.2 42.3L500 42L500 0L488.2 0C476.3 0 452.7 0 428.8 0C405 0 381 0 357.2 0C333.3 0 309.7 0 285.8 0C262 0 238 0 214.2 0C190.3 0 166.7 0 142.8 0C119 0 95 0 71.2 0C47.3 0 23.7 0 11.8 0L0 0Z" fill="#23547c"></path><path d="M0 32L11.8 33.7C23.7 35.3 47.3 38.7 71.2 38.3C95 38 119 34 142.8 35C166.7 36 190.3 42 214.2 44C238 46 262 44 285.8 42.7C309.7 41.3 333.3 40.7 357.2 39.7C381 38.7 405 37.3 428.8 36C452.7 34.7 476.3 33.3 488.2 32.7L500 32L500 0L488.2 0C476.3 0 452.7 0 428.8 0C405 0 381 0 357.2 0C333.3 0 309.7 0 285.8 0C262 0 238 0 214.2 0C190.3 0 166.7 0 142.8 0C119 0 95 0 71.2 0C47.3 0 23.7 0 11.8 0L0 0Z" fill="#0660a6"></path><path d="M0 27L11.8 26.7C23.7 26.3 47.3 25.7 71.2 24.5C95 23.3 119 21.7 142.8 21.8C166.7 22 190.3 24 214.2 26.2C238 28.3 262 30.7 285.8 30C309.7 29.3 333.3 25.7 357.2 23.8C381 22 405 22 428.8 21.3C452.7 20.7 476.3 19.3 488.2 18.7L500 18L500 0L488.2 0C476.3 0 452.7 0 428.8 0C405 0 381 0 357.2 0C333.3 0 309.7 0 285.8 0C262 0 238 0 214.2 0C190.3 0 166.7 0 142.8 0C119 0 95 0 71.2 0C47.3 0 23.7 0 11.8 0L0 0Z" fill="#1f68ce"></path><path d="M0 12L11.8 12.3C23.7 12.7 47.3 13.3 71.2 14.8C95 16.3 119 18.7 142.8 19.5C166.7 20.3 190.3 19.7 214.2 18.7C238 17.7 262 16.3 285.8 16.7C309.7 17 333.3 19 357.2 19.8C381 20.7 405 20.3 428.8 19.5C452.7 18.7 476.3 17.3 488.2 16.7L500 16L500 0L488.2 0C476.3 0 452.7 0 428.8 0C405 0 381 0 357.2 0C333.3 0 309.7 0 285.8 0C262 0 238 0 214.2 0C190.3 0 166.7 0 142.8 0C119 0 95 0 71.2 0C47.3 0 23.7 0 11.8 0L0 0Z" fill="#566bf2"></path></svg>