<svg id="visual" viewBox="0 0 900 300" width="900" height="300" xmlns="http://www.w3.org/2000/svg" xmlns:xlink="http://www.w3.org/1999/xlink" version="1.1"><path d="M0 106L16.7 104.5C33.3 103 66.7 100 100 103C133.3 106 166.7 115 200 107C233.3 99 266.7 74 300 76C333.3 78 366.7 107 400 114.5C433.3 122 466.7 108 500 93C533.3 78 566.7 62 600 62C633.3 62 666.7 78 700 86.5C733.3 95 766.7 96 800 93.5C833.3 91 866.7 85 883.3 82L900 79L900 0L883.3 0C866.7 0 833.3 0 800 0C766.7 0 733.3 0 700 0C666.7 0 633.3 0 600 0C566.7 0 533.3 0 500 0C466.7 0 433.3 0 400 0C366.7 0 333.3 0 300 0C266.7 0 233.3 0 200 0C166.7 0 133.3 0 100 0C66.7 0 33.3 0 16.7 0L0 0Z" fill="#001220"></path><path d="M0 136L16.7 133C33.3 130 66.7 124 100 125C133.3 126 166.7 134 200 129C233.3 124 266.7 106 300 111C333.3 116 366.7 144 400 152.5C433.3 161 466.7 150 500 133.5C533.3 117 566.7 95 600 95.5C633.3 96 666.7 119 700 131C733.3 143 766.7 144 800 140.5C833.3 137 866.7 129 883.3 125L900 121L900 77L883.3 80C866.7 83 833.3 89 800 91.5C766.7 94 733.3 93 700 84.5C666.7 76 633.3 60 600 60C566.7 60 533.3 76 500 91C466.7 106 433.3 120 400 112.5C366.7 105 333.3 76 300 74C266.7 72 233.3 97 200 105C166.7 113 133.3 104 100 101C66.7 98 33.3 101 16.7 102.5L0 104Z" fill="#6a2d6f"></path><path d="M0 193L16.7 190C33.3 187 66.7 181 100 179C133.3 177 166.7 179 200 173C233.3 167 266.7 153 300 157C333.3 161 366.7 183 400 192C433.3 201 466.7 197 500 184C533.3 171 566.7 149 600 146.5C633.3 144 666.7 161 700 168C733.3 175 766.7 172 800 167C833.3 162 866.7 155 883.3 151.5L900 148L900 119L883.3 123C866.7 127 833.3 135 800 138.5C766.7 142 733.3 141 700 129C666.7 117 633.3 94 600 93.5C566.7 93 533.3 115 500 131.5C466.7 148 433.3 159 400 150.5C366.7 142 333.3 114 300 109C266.7 104 233.3 122 200 127C166.7 132 133.3 124 100 123C66.7 122 33.3 128 16.7 131L0 134Z" fill="#c62368"></path><path d="M0 241L16.7 243C33.3 245 66.7 249 100 252.5C133.3 256 166.7 259 200 257C233.3 255 266.7 248 300 246.5C333.3 245 366.7 249 400 247.5C433.3 246 466.7 239 500 236C533.3 233 566.7 234 600 239.5C633.3 245 666.7 255 700 255.5C733.3 256 766.7 247 800 245C833.3 243 866.7 248 883.3 250.5L900 253L900 146L883.3 149.5C866.7 153 833.3 160 800 165C766.7 170 733.3 173 700 166C666.7 159 633.3 142 600 144.5C566.7 147 533.3 169 500 182C466.7 195 433.3 199 400 190C366.7 181 333.3 159 300 155C266.7 151 233.3 165 200 171C166.7 177 133.3 175 100 177C66.7 179 33.3 185 16.7 188L0 191Z" fill="#6a2d6f"></path><path d="M0 301L16.7 301C33.3 301 66.7 301 100 301C133.3 301 166.7 301 200 301C233.3 301 266.7 301 300 301C333.3 301 366.7 301 400 301C433.3 301 466.7 301 500 301C533.3 301 566.7 301 600 301C633.3 301 666.7 301 700 301C733.3 301 766.7 301 800 301C833.3 301 866.7 301 883.3 301L900 301L900 251L883.3 248.5C866.7 246 833.3 241 800 243C766.7 245 733.3 254 700 253.5C666.7 253 633.3 243 600 237.5C566.7 232 533.3 231 500 234C466.7 237 433.3 244 400 245.5C366.7 247 333.3 243 300 244.5C266.7 246 233.3 253 200 255C166.7 257 133.3 254 100 250.5C66.7 247 33.3 243 16.7 241L0 239Z" fill="#001220"></path></svg>