<svg id="visual" viewBox="0 0 1000 540" width="1000" height="540" xmlns="http://www.w3.org/2000/svg" xmlns:xlink="http://www.w3.org/1999/xlink" version="1.1"><rect x="0" y="0" width="1000" height="540" fill="#001220"></rect><path d="M0 418L23.8 419.8C47.7 421.7 95.3 425.3 143 429.3C190.7 433.3 238.3 437.7 286 438C333.7 438.3 381.3 434.7 428.8 430.8C476.3 427 523.7 423 571.2 422.8C618.7 422.7 666.3 426.3 714 433C761.7 439.7 809.3 449.3 857 445.8C904.7 442.3 952.3 425.7 976.2 417.3L1000 409L1000 541L976.2 541C952.3 541 904.7 541 857 541C809.3 541 761.7 541 714 541C666.3 541 618.7 541 571.2 541C523.7 541 476.3 541 428.8 541C381.3 541 333.7 541 286 541C238.3 541 190.7 541 143 541C95.3 541 47.7 541 23.8 541L0 541Z" fill="#b32222"></path><path d="M0 469L23.8 469.2C47.7 469.3 95.3 469.7 143 469.7C190.7 469.7 238.3 469.3 286 469.8C333.7 470.3 381.3 471.7 428.8 467.7C476.3 463.7 523.7 454.3 571.2 448.8C618.7 443.3 666.3 441.7 714 443C761.7 444.3 809.3 448.7 857 450.8C904.7 453 952.3 453 976.2 453L1000 453L1000 541L976.2 541C952.3 541 904.7 541 857 541C809.3 541 761.7 541 714 541C666.3 541 618.7 541 571.2 541C523.7 541 476.3 541 428.8 541C381.3 541 333.7 541 286 541C238.3 541 190.7 541 143 541C95.3 541 47.7 541 23.8 541L0 541Z" fill="#af0046"></path><path d="M0 476L23.8 476.2C47.7 476.3 95.3 476.7 143 473.2C190.7 469.7 238.3 462.3 286 464.3C333.7 466.3 381.3 477.7 428.8 480.2C476.3 482.7 523.7 476.3 571.2 470.8C618.7 465.3 666.3 460.7 714 462.3C761.7 464 809.3 472 857 478C904.7 484 952.3 488 976.2 490L1000 492L1000 541L976.2 541C952.3 541 904.7 541 857 541C809.3 541 761.7 541 714 541C666.3 541 618.7 541 571.2 541C523.7 541 476.3 541 428.8 541C381.3 541 333.7 541 286 541C238.3 541 190.7 541 143 541C95.3 541 47.7 541 23.8 541L0 541Z" fill="#9b0067"></path><path d="M0 504L23.8 500.8C47.7 497.7 95.3 491.3 143 490.5C190.7 489.7 238.3 494.3 286 493.8C333.7 493.3 381.3 487.7 428.8 489.5C476.3 491.3 523.7 500.7 571.2 500.7C618.7 500.7 666.3 491.3 714 490.3C761.7 489.3 809.3 496.7 857 500.5C904.7 504.3 952.3 504.7 976.2 504.8L1000 505L1000 541L976.2 541C952.3 541 904.7 541 857 541C809.3 541 761.7 541 714 541C666.3 541 618.7 541 571.2 541C523.7 541 476.3 541 428.8 541C381.3 541 333.7 541 286 541C238.3 541 190.7 541 143 541C95.3 541 47.7 541 23.8 541L0 541Z" fill="#741e83"></path><path d="M0 524L23.8 520.8C47.7 517.7 95.3 511.3 143 509.8C190.7 508.3 238.3 511.7 286 514C333.7 516.3 381.3 517.7 428.8 517.2C476.3 516.7 523.7 514.3 571.2 514.2C618.7 514 666.3 516 714 515C761.7 514 809.3 510 857 507.5C904.7 505 952.3 504 976.2 503.5L1000 503L1000 541L976.2 541C952.3 541 904.7 541 857 541C809.3 541 761.7 541 714 541C666.3 541 618.7 541 571.2 541C523.7 541 476.3 541 428.8 541C381.3 541 333.7 541 286 541C238.3 541 190.7 541 143 541C95.3 541 47.7 541 23.8 541L0 541Z" fill="#223296"></path></svg>