<svg id="visual" viewBox="0 0 960 540" width="960" height="540" xmlns="http://www.w3.org/2000/svg" xmlns:xlink="http://www.w3.org/1999/xlink" version="1.1"><rect x="0" y="0" width="960" height="540" fill="#001220"></rect><path d="M0 408L22.8 415C45.7 422 91.3 436 137 444.8C182.7 453.7 228.3 457.3 274 456.8C319.7 456.3 365.3 451.7 411.2 447.2C457 442.7 503 438.3 548.8 439C594.7 439.7 640.3 445.3 686 444.5C731.7 443.7 777.3 436.3 823 435.8C868.7 435.3 914.3 441.7 937.2 444.8L960 448L960 541L937.2 541C914.3 541 868.7 541 823 541C777.3 541 731.7 541 686 541C640.3 541 594.7 541 548.8 541C503 541 457 541 411.2 541C365.3 541 319.7 541 274 541C228.3 541 182.7 541 137 541C91.3 541 45.7 541 22.8 541L0 541Z" fill="#b32222"></path><path d="M0 457L22.8 453.5C45.7 450 91.3 443 137 442.8C182.7 442.7 228.3 449.3 274 452.7C319.7 456 365.3 456 411.2 459C457 462 503 468 548.8 471.3C594.7 474.7 640.3 475.3 686 470.3C731.7 465.3 777.3 454.7 823 452.2C868.7 449.7 914.3 455.3 937.2 458.2L960 461L960 541L937.2 541C914.3 541 868.7 541 823 541C777.3 541 731.7 541 686 541C640.3 541 594.7 541 548.8 541C503 541 457 541 411.2 541C365.3 541 319.7 541 274 541C228.3 541 182.7 541 137 541C91.3 541 45.7 541 22.8 541L0 541Z" fill="#af0046"></path><path d="M0 457L22.8 458.5C45.7 460 91.3 463 137 465.7C182.7 468.3 228.3 470.7 274 474.8C319.7 479 365.3 485 411.2 482.5C457 480 503 469 548.8 466.8C594.7 464.7 640.3 471.3 686 471.2C731.7 471 777.3 464 823 466.7C868.7 469.3 914.3 481.7 937.2 487.8L960 494L960 541L937.2 541C914.3 541 868.7 541 823 541C777.3 541 731.7 541 686 541C640.3 541 594.7 541 548.8 541C503 541 457 541 411.2 541C365.3 541 319.7 541 274 541C228.3 541 182.7 541 137 541C91.3 541 45.7 541 22.8 541L0 541Z" fill="#9b0067"></path><path d="M0 503L22.8 501C45.7 499 91.3 495 137 493.5C182.7 492 228.3 493 274 493.2C319.7 493.3 365.3 492.7 411.2 494.2C457 495.7 503 499.3 548.8 499.5C594.7 499.7 640.3 496.3 686 497.2C731.7 498 777.3 503 823 501.5C868.7 500 914.3 492 937.2 488L960 484L960 541L937.2 541C914.3 541 868.7 541 823 541C777.3 541 731.7 541 686 541C640.3 541 594.7 541 548.8 541C503 541 457 541 411.2 541C365.3 541 319.7 541 274 541C228.3 541 182.7 541 137 541C91.3 541 45.7 541 22.8 541L0 541Z" fill="#741e83"></path><path d="M0 513L22.8 514.7C45.7 516.3 91.3 519.7 137 518.2C182.7 516.7 228.3 510.3 274 510.3C319.7 510.3 365.3 516.7 411.2 518.3C457 520 503 517 548.8 515.3C594.7 513.7 640.3 513.3 686 513.7C731.7 514 777.3 515 823 515.5C868.7 516 914.3 516 937.2 516L960 516L960 541L937.2 541C914.3 541 868.7 541 823 541C777.3 541 731.7 541 686 541C640.3 541 594.7 541 548.8 541C503 541 457 541 411.2 541C365.3 541 319.7 541 274 541C228.3 541 182.7 541 137 541C91.3 541 45.7 541 22.8 541L0 541Z" fill="#223296"></path></svg>